<?xml version="1.0" encoding="utf-8"?>
<!-- Generator: Adobe Illustrator 26.0.3, SVG Export Plug-In . SVG Version: 6.00 Build 0)  -->
<svg version="1.0" id="Layer_1" xmlns="http://www.w3.org/2000/svg" xmlns:xlink="http://www.w3.org/1999/xlink" x="0px" y="0px"
	 viewBox="0 0 1224.1 886.8" style="enable-background:new 0 0 1224.1 886.8;" xml:space="preserve">
<style type="text/css">
	.st0{fill:#9C1116;stroke:#9C1116;stroke-width:0.45;stroke-miterlimit:2.61;}
	.st1{fill:#FFFFFF;stroke:#9C1116;stroke-width:0.45;stroke-miterlimit:2.61;}
	.st2{fill:#9C1116;stroke:#9C1116;stroke-width:0.84;stroke-miterlimit:2.61;}
	.st3{fill:#9C1116;}
	.st4{fill:#FFFFFF;}
	.st5{fill:none;stroke:#9C1116;stroke-width:8.3;stroke-miterlimit:2.61;}
	.st6{fill:none;stroke:#9C1116;stroke-width:12.3;stroke-miterlimit:2.61;}
	.st7{fill:none;stroke:#9C1116;stroke-width:1.24;stroke-miterlimit:2.61;}
	.st8{fill:none;stroke:#9C1116;stroke-width:1.24;stroke-miterlimit:2.61;stroke-dasharray:2.49,1.24;}
	.st9{fill:none;stroke:#9C1116;stroke-width:1.24;stroke-miterlimit:2.61;stroke-dasharray:2.49,1.25;}
	.st10{fill:none;stroke:#9C1116;stroke-width:1.38;stroke-miterlimit:2.61;stroke-dasharray:2.76,1.38;}
	.st11{fill:none;stroke:#9C1116;stroke-width:1.39;stroke-miterlimit:2.61;stroke-dasharray:2.78,1.39;}
</style>
<g id="g3238">
	<path id="path182" class="st0" d="M425.9,682.5l7.5-10.3l-45.4-43l-34.5,18.5l-4.1,0.7l-30.7-5.7l-3-0.5l-1.5-2.6L295.7,606
		l-1.5-2.7l1.2-2.8l10.7-25l2.6-3l36.8-21.9L330.3,491l-38.6,0.5l-3.8-1.2l-23.4-17l-2.5-1.8l-0.2-3l-2.1-39.9l-0.2-3.3l2.6-2
		l25.5-20.2l3.9-1.4l36.3-0.5l12.5-61.6l-28.5-20.5l-2.1-2.5L296,286.9l-1.5-3.2l1.9-2.9l20.7-32.4l1.7-2.7l3.1-0.3l30.8-2.7
		l3.6,0.9l31.5,17.9l45.4-44l-19.9-29.1l-1.1-4l2.1-31.9l0.2-3.2l2.8-1.7l34.6-21.2l2.6-1.6l2.9,1.1l28.7,10.6l3.1,2.5l19.9,30.3
		l60-13.8l0.9-39.2l1.5-3.9l19.1-22.8l2-2.4l3,0.1l40.4,1.1l3.1,0.1l1.8,2.5l18.6,25.5l1.3,3.4l1.9,35.1l58.6,13.9l22-32l3.2-2.4
		l29.2-10.1l3.1-1.1l2.7,1.8l31.9,22.3l2.5,1.7l0.2,3l2.1,28.7l-0.9,3.8l-20.3,33l43.1,43.1l36.8-19.6l3.5-0.7l29.2,2.7l3.4,0.3
		l1.6,3l19.7,35.6l1.5,2.7l-1.2,2.8l-10.6,25L922,315l-32.2,23l13.5,61.3l39.8,1.9l3.7,1.4l21.8,17.5l2.5,2l-0.1,3.2l-1.6,38.3
		l-0.1,3.1l-2.5,1.8l-25,18.1l-3.6,1.2l-38,0.9L887.6,552l32.7,18.5l2.7,2.9l11.7,25.5l1.3,2.8l-1.3,2.7l-17,33.5l-1.4,2.8l-3,0.6
		l-30.3,5.8l-4.1-0.6l-37.8-19.6L798,671.5l9.7,12.1L816,694h-13.3L431,692.6l-12.4-0.1L425.9,682.5L425.9,682.5z"/>
	<path id="path186" class="st1" d="M446.9,675.2l-3.5,4.8l346.1,1.2l-4.9-6.1l-3.5-4.3l3.9-4l50-52.1l3.3-3.4l4.2,2.2l40,20.8
		l25.1-4.8l14.2-28l-9.5-20.8l-34.9-19.7l-4-2.3l0.9-4.5l14.3-72.8l1-5l5.1-0.1l41.1-1l20.9-15.1l1.3-32l-17.6-14.2l-42.6-2
		l-4.9-0.2l-1-4.8l-15.5-70.3l-0.9-4.1l3.4-2.4l34.2-24.5l8.7-20.5l-16.5-30l-24-2.2L842,273.9l-4.2,2.2l-3.3-3.3l-50-50l-3.5-3.5
		l2.6-4.3l21.8-35.4l-1.8-23.7l-26.7-18.7l-24.2,8.4l-23.2,33.9L727,183l-4.2-1L655.3,166l-4.7-1.1l-0.2-4.8l-2-38l-15.7-21.4
		l-34.2-0.9l-15.7,18.8l-1,41.9l-0.1,4.9l-4.8,1.1l-69.1,15.9l-4.3,1l-2.5-3.7l-21.1-32.3l-23.9-8.8l-29.1,17.9l-1.8,26.5l21.6,31.6
		l3,4.4l-3.8,3.7l-52.6,51l-3.4,3.3l-4.1-2.4L352,255.6l-25.8,2.2L309,284.7l11.6,25l30.5,21.9l3.3,2.4l-0.8,4l-14.4,70.7l-1,5
		l-5.1,0.1l-39.3,0.6l-21.2,16.8l1.8,33.6l19.2,14l41.5-0.5l5-0.1l1.2,4.9l17.5,69.1l1.2,4.6l-4.1,2.4L317,582.4l-8.7,20.2
		l15.6,28.2l25.5,4.8l36.6-19.6l4-2.2l3.3,3.2l52.8,49.9l4,3.8L446.9,675.2L446.9,675.2z"/>
	<path id="path196" class="st2" d="M424.3,404.5l79-54l1.4,47.1l76.2-50.6v47.8l79-42.9l0.6,41.5l77.6-43l1.4,43l73.4-41.6
		l6.9,121.9l-15.9,0.7l-376.1,0.7l-20.1,1.4l2.1-72.7L424.3,404.5z"/>
	<path id="path198" class="st3" d="M616,230.6L616,230.6c57.4,0,109.5,23.7,147.3,61.9c39.2,39.7,61.2,93.2,61.1,149l0,0
		c0.1,55.8-21.9,109.3-61.2,149c-37.8,38.2-89.9,61.8-147.3,61.8l0,0c-57.4,0-109.5-23.7-147.3-61.9c-39.2-39.7-61.2-93.2-61.1-149
		l0,0c-0.1-55.8,21.9-109.3,61.1-149c37.8-38.2,89.9-61.9,147.3-61.9L616,230.6z M616,243.3L616,243.3
		c-53.9,0-102.8,22.2-138.2,58.1c-36.9,37.3-57.5,87.6-57.5,140.1l0,0c-0.1,52.4,20.6,102.8,57.5,140.1
		c35.5,35.9,84.4,58.1,138.3,58.1l0,0c53.9,0,102.8-22.2,138.2-58.1c36.9-37.3,57.5-87.6,57.5-140.1l0,0
		c0.1-52.5-20.6-102.8-57.5-140.1C718.8,265.5,669.9,243.3,616,243.3"/>
	<path id="path200" class="st4" d="M431.9,412.1h20.8v15.2h-20.8V412.1z"/>
	<path id="path202" class="st4" d="M465.9,412.1h20.8v15.2h-20.8V412.1z"/>
	<path id="path204" class="st4" d="M511.6,412.1h20.8v15.2h-20.8V412.1z"/>
	<path id="path206" class="st4" d="M546.9,412.1h20.8v15.2h-20.8V412.1z"/>
	<path id="path208" class="st4" d="M585.7,412.1h20.8v15.2h-20.8V412.1z"/>
	<path id="path210" class="st4" d="M622.4,412.1h20.8v15.2h-20.8V412.1z"/>
	<path id="path212" class="st4" d="M660.5,412.1h20.8v15.2h-20.8V412.1z"/>
	<path id="path214" class="st4" d="M699.3,412.1h20.8v15.2h-20.8V412.1z"/>
	<path id="path216" class="st4" d="M737.4,412.1h20.8v15.2h-20.8V412.1z"/>
	<path id="path218" class="st4" d="M775.5,412.1h20.8v15.2h-20.8V412.1z"/>
	<path id="path222" class="st5" d="M686,250.7c0,0-74,67.5,51.5,28.5"/>
	<path id="path226" class="st6" d="M671.2,294.4v100.8"/>
	<path id="path228" class="st3" d="M429.8,319.9l-4.1,7.8l-9.7-1.2l-7.5,14.1l6.5,7.2l-4,7.6l-28-32.6l4-7.5L429.8,319.9z
		 M408.8,325.6l-15.7-2.1l10.6,11.7L408.8,325.6z M432.7,316.9l-31.1-25.2l5-6.1l31.1,4.1l-20.8-16.8l4.7-5.8l31.1,25.2l-5.1,6.3
		l-30.4-3.9l20.3,16.4L432.7,316.9z M458.6,285.6l-25.7-30.7l6-5.1l29.8,10l-17.1-20.5l5.8-4.8l25.7,30.7l-6.2,5.2l-29.1-9.6
		l16.8,20L458.6,285.6z M521.4,242.5l-7.7,4.3l-7.5-6.3l-14,7.8l1.5,9.6l-7.5,4.2l-5.8-42.6l7.5-4.1L521.4,242.5z M500.7,235.8
		l-12-10.3l2.5,15.6L500.7,235.8z M529,196.5l7.8-2.1l5.6,21c0.5,2.2,1.2,4.3,2,6.4c0.7,1.4,1.9,2.6,3.4,3.2
		c1.8,0.6,3.7,0.7,5.5,0.1c1.8-0.3,3.5-1.3,4.7-2.7c0.9-1.1,1.3-2.5,1.1-3.9c-0.3-2.3-0.8-4.5-1.4-6.7l-5.8-21.4l7.8-2.1l5.5,20.3
		c1,3.3,1.6,6.6,2,10c0.1,1.9-0.2,3.8-1,5.5c-0.9,1.7-2.1,3.2-3.7,4.4c-2.2,1.5-4.6,2.6-7.1,3.2c-3.7,1-6.6,1.3-8.7,1
		c-1.9-0.3-3.8-1-5.4-2.1c-1.4-1-2.5-2.2-3.3-3.7c-1.5-3.1-2.6-6.3-3.4-9.6L529,196.5z M578.9,224.7l-2.8-39.9l7.8-0.6l18.2,25.5
		l-1.9-26.7l7.5-0.5l2.8,40l-8.1,0.6l-17.9-24.9l1.8,26.1L578.9,224.7z M619,222.9l0.7-40l8.1,0.1l-0.7,40L619,222.9z M644.8,225.3
		l-7.2-41.9l8.7,1.5l4.8,30.9l14.8-27.5l8.4,1.5l-21.1,36.9L644.8,225.3z M671.4,230.3l13-37.9l28.1,9.7l-2.2,6.4l-20.4-7l-2.9,8.4
		l19,6.6l-2.2,6.4l-19-6.5l-3.6,10.3l21.2,7.3l-2.2,6.4L671.4,230.3z M706.7,242.7l19.4-35l14.9,8.3c3.7,2.1,6.3,3.9,7.6,5.5
		c1.4,1.6,2.1,3.5,2.2,5.6c0.1,2.2-0.4,4.4-1.5,6.4c-1.2,2.4-3.4,4.3-5.9,5.2c-2.5,0.8-5.4,0.6-8.7-0.6c1,1.6,1.7,3.2,2.2,5
		c0.5,2.6,0.8,5.3,0.9,7.9l0.5,9.2l-8.5-4.7l-0.9-10.5c-0.1-2.4-0.4-4.8-0.9-7.2c-0.2-1-0.7-1.9-1.3-2.6c-1-1-2.1-1.8-3.4-2.4
		l-1.4-0.8l-8.1,14.6L706.7,242.7z M725,226.4l5.2,2.9c3.4,1.9,5.6,2.9,6.6,3.1c1,0.2,1.9,0,2.8-0.4c0.9-0.5,1.7-1.3,2.2-2.2
		c0.6-1,0.8-2.2,0.6-3.4c-0.3-1.1-1-2.2-1.9-2.9c-0.5-0.4-2.2-1.4-5.1-3l-5.5-3.1L725,226.4z M748.5,251.6l6.5,4.5
		c-1.2,1.9-1.8,4.1-1.5,6.3c0.4,2.1,1.6,3.9,3.3,5.2c2,1.7,3.9,2.5,5.6,2.5c1.5,0.1,3-0.5,4-1.7c0.6-0.7,0.9-1.5,0.9-2.4
		c-0.1-1.1-0.5-2.2-1.1-3.2c-0.5-0.9-1.8-2.7-3.8-5.5c-2.6-3.6-4.1-6.6-4.4-8.9c-0.9-5.2,2.3-10.3,7.4-11.8c2.1-0.6,4.3-0.6,6.4,0.1
		c2.6,0.9,4.9,2.2,6.9,4c3.8,3.2,6,6.5,6.6,9.8c0.5,3.3-0.4,6.7-2.6,9.3l-6.5-4.9c1-1.4,1.4-3.1,1.2-4.8c-0.5-1.7-1.5-3.3-3-4.3
		c-1.4-1.3-3.2-2.2-5.2-2.4c-1-0.1-2,0.3-2.6,1.1c-0.6,0.7-0.8,1.7-0.6,2.6c0.2,1.3,1.5,3.6,4,6.8c1.9,2.4,3.5,5,4.8,7.8
		c0.8,1.9,1.1,4,0.8,6c-0.4,2.2-1.4,4.2-2.9,5.9c-1.5,1.8-3.4,3-5.6,3.7c-2.3,0.7-4.7,0.7-7-0.1c-2.8-1-5.4-2.5-7.6-4.5
		c-3.9-3.2-6.1-6.6-6.7-10.2S746,255.4,748.5,251.6L748.5,251.6z M769.6,287.6l28.3-28.3l5.7,5.7l-28.3,28.3L769.6,287.6z
		 M785.8,306.1l25.5-21.4l-7.6-9.1l5.2-4.4l20.5,24.4L824,300l-7.6-9.1l-25.5,21.4L785.8,306.1z M806,335.8l14.9-7.9l13.6-23.8
		l4.5,8.3l-9.6,15.8l18.3,0.7l4.4,8.2l-27.4-2.1l-14.8,7.9L806,335.8z"/>
	<path id="path234" class="st7" d="M544.9,507.7c3-2.6,5.2-4.4,8.2-7c28.5-2.4,60.4-24.9,63.3-0.6c12-26.8,35.9,2.2,64.8,1.2
		c2.1,1.8,4.3,3.1,6.4,5c10.6,31,21.2,62.7,31.8,93.7c-53.3,1.7-91.9-33.9-94.9,7.3l-15.5,0.3c-2.5-38.3-55.8-3.1-95.1-7.6
		C524.2,569.2,534.6,538.5,544.9,507.7L544.9,507.7z"/>
	<path id="path238" class="st7" d="M544.9,507.7c3-2.6,5.2-4.4,8.2-7c28.5-2.4,60.4-24.9,63.3-0.6c12-26.8,35.9,2.2,64.8,1.2
		c2.1,1.8,4.3,3.1,6.4,5c10.6,31,21.2,62.7,31.8,93.7c-53.3,1.7-91.9-33.9-94.9,7.3l-15.5,0.3c-2.5-38.3-55.8-3.1-95.1-7.6
		C524.2,569.2,534.6,538.5,544.9,507.7L544.9,507.7z"/>
	<path id="path242" class="st7" d="M553.2,500.3c28.5-2.1,60.4-23.4,63.3-1.4c12.2-22.3,30.6-0.8,64.2,2.2l28.6,88.9
		c-54.2-6-73.5-33.3-92.2,6.3c-25.8-42.3-37.9-10.9-93.1-5.7L553.2,500.3z"/>
	<path id="path246" class="st7" d="M616.7,499.2v95.4"/>
	<path id="path250" class="st8" d="M558.6,514.7c0,0,28-9.9,37.1-5.6s11.4,2.3,11.4,2.3"/>
	<path id="path254" class="st9" d="M558.7,521.3c0,0,27.5-9.9,36.4-5.5c8.9,4.4,11.2,2.3,11.2,2.3"/>
	<path id="path258" class="st10" d="M558.5,529.3c0,0,26.8-9.9,35.5-5.5c8.7,4.4,10.9,2.3,10.9,2.3"/>
	<path id="path262" class="st11" d="M558.5,537c0,0,26-9.9,34.4-5.5s10.5,2.3,10.5,2.3"/>
	<path id="path266" class="st8" d="M554.8,544.8c0,0,28-9.9,37.1-5.5c9.1,4.4,11.4,2.3,11.4,2.3"/>
	<path id="path270" class="st8" d="M553.6,551.8c0,0,28-9.9,37.1-5.5c9.1,4.4,11.4,2.3,11.4,2.3"/>
	<path id="path274" class="st8" d="M551.6,559.4c0,0,28-9.9,37.1-5.5s11.4,2.3,11.4,2.3"/>
	<path id="path278" class="st8" d="M549.6,565.5c0,0,28-9.9,37.1-5.5c9.1,4.4,11.4,2.3,11.4,2.3"/>
	<path id="path282" class="st8" d="M676.2,514.7c0,0-28-9.9-37.1-5.6s-11.4,2.3-11.4,2.3"/>
	<path id="path286" class="st9" d="M676.3,521.3c0,0-27.5-9.9-36.4-5.5c-8.9,4.4-11.2,2.3-11.2,2.3"/>
	<path id="path290" class="st10" d="M676.1,529.3c0,0-26.8-9.9-35.5-5.5c-8.7,4.4-10.9,2.3-10.9,2.3"/>
	<path id="path294" class="st11" d="M676.1,537c0,0-26-9.9-34.4-5.5s-10.6,2.3-10.6,2.3"/>
	<path id="path298" class="st8" d="M680,544.8c0,0-28-9.9-37.1-5.5c-9.1,4.4-11.4,2.3-11.4,2.3"/>
	<path id="path302" class="st8" d="M681.2,551.8c0,0-28-9.9-37.1-5.5s-11.4,2.3-11.4,2.3"/>
	<path id="path306" class="st8" d="M683.2,559.4c0,0-28-9.9-37.1-5.5s-11.4,2.3-11.4,2.3"/>
	<path id="path310" class="st8" d="M685.3,565.5c0,0-28-9.9-37.1-5.5c-9.1,4.4-11.4,2.3-11.4,2.3"/>
	<path id="path314" class="st0" d="M259.5,682.4h706.3v117.4H253.1V682.4H259.5z"/>
	<path id="path318" class="st1" d="M953,695.1H265.8v91.9H953V695.1z"/>
	<path id="path320" class="st3" d="M283.2,767.4v-46h8.6c3.2,0,5.3,0.2,6.3,0.7c1.6,0.7,2.9,2.2,3.9,4.5c1.1,2.9,1.6,5.9,1.5,9
		c0.1,2.8-0.4,5.7-1.3,8.3c-0.6,1.9-1.8,3.5-3.3,4.7c-1.3,0.9-3.6,1.4-6.8,1.4h-3.5v17.4H283.2z M288.5,729.2v13h3
		c1.4,0.1,2.7-0.1,4-0.6c0.8-0.5,1.4-1.3,1.7-2.2c0.9-2.5,0.9-5.2,0-7.7c-0.3-0.9-0.9-1.6-1.7-2.1c-1.4-0.5-2.9-0.6-4.4-0.5
		L288.5,729.2z M307.8,767.4v-46H319c2.9,0,4.9,0.4,6.1,1.2c1.4,1.1,2.5,2.6,3,4.3c0.8,2.3,1.3,4.8,1.2,7.3c0.1,3-0.5,6-1.8,8.7
		c-1,2.1-2.9,3.6-5.1,4.1c1.1,1.1,2.1,2.4,2.8,3.8c1.2,2.4,2.2,4.9,3.1,7.5l3.2,9h-6.3l-3.9-10c-0.8-2.3-1.8-4.6-2.8-6.8
		c-0.4-0.7-0.9-1.4-1.6-1.9c-0.8-0.4-1.8-0.6-2.7-0.5h-1.1v19.2H307.8z M313.1,740.9h4c1.6,0.1,3.1,0,4.6-0.5c0.7-0.4,1.3-1,1.6-1.8
		c0.4-1.2,0.7-2.4,0.6-3.7c0-1.2-0.2-2.4-0.6-3.5c-0.3-0.8-0.9-1.4-1.7-1.8c-1.4-0.3-2.9-0.4-4.3-0.3h-4.2V740.9z M333.4,744.7
		c-0.1-4.6,0.4-9.1,1.7-13.5c0.8-3,2.3-5.7,4.4-7.9c1.8-1.7,4.2-2.7,6.7-2.6c3.8,0,6.9,2.1,9.2,6.2c2.4,4.1,3.6,10,3.6,17.6
		c0,7.7-1.3,13.7-3.8,18c-2.2,3.8-5.2,5.7-9,5.7c-3.8,0-6.8-1.9-9-5.7C334.6,758.1,333.4,752.2,333.4,744.7L333.4,744.7z
		 M338.8,744.4c0,5.3,0.7,9.2,2.1,11.9c1.4,2.6,3.1,4,5.2,4c2.1,0,3.8-1.3,5.2-3.9s2.1-6.6,2.1-12.1c0-5.3-0.7-9.3-2-11.8
		s-3.1-3.8-5.2-3.8s-3.9,1.3-5.3,3.8C339.5,735,338.9,739,338.8,744.4L338.8,744.4z M375.4,750.5v-7.8h11.5V761
		c-1.2,2-2.9,3.7-4.9,5c-1.9,1.3-4.1,2.1-6.4,2.1c-2.6,0-5-1-6.9-2.7c-2.3-2.3-3.9-5.1-4.7-8.2c-1.2-4.2-1.8-8.5-1.8-12.8
		c-0.1-4.4,0.5-8.8,1.8-13c0.8-3,2.4-5.8,4.6-8.1c1.8-1.7,4.2-2.7,6.8-2.7c2.9-0.1,5.7,1.2,7.6,3.4c1.9,2.3,3.1,5.6,3.6,10.1
		l-5.3,1.7c-0.2-2-1-3.8-2.2-5.4c-0.9-1.2-2.3-1.9-3.8-1.9c-2.3,0-4.1,1.3-5.5,3.8c-1.4,2.5-2.1,6.3-2.1,11.5
		c0,5.5,0.8,9.7,2.3,12.6c1.3,2.5,3.1,3.7,5.3,3.7c1.2,0,2.3-0.4,3.2-1c1.2-0.8,2.2-1.7,3-2.9v-5.8L375.4,750.5z M391.8,767.4v-46
		H403c2.9,0,4.9,0.4,6.1,1.2c1.4,1.1,2.5,2.6,3,4.3c0.8,2.3,1.2,4.8,1.2,7.3c0.1,3-0.5,6-1.8,8.7c-1,2.1-2.9,3.6-5.1,4.1
		c1.1,1.1,2.1,2.4,2.8,3.8c1.2,2.4,2.2,4.9,3.1,7.5l3.2,9h-6.3l-3.9-10c-0.8-2.3-1.8-4.6-2.8-6.8c-0.4-0.8-0.9-1.4-1.6-1.9
		c-0.8-0.4-1.8-0.6-2.7-0.5h-1.1v19.2H391.8z M397.1,740.9h4c1.6,0.1,3.1,0,4.6-0.5c0.7-0.4,1.3-1,1.6-1.8c0.5-1.2,0.7-2.4,0.6-3.7
		c0-1.2-0.2-2.4-0.6-3.5c-0.3-0.8-0.9-1.4-1.7-1.8c-1.4-0.3-2.9-0.4-4.3-0.3h-4.2L397.1,740.9z M418.4,767.4v-46H438v7.8h-14.3v10.2
		H437v7.7h-13.3v12.5h14.8v7.8H418.4z M441.7,752.4l5.2-0.9c0.6,5.9,2.5,8.8,5.8,8.8c1.5,0.1,2.9-0.6,3.8-1.8c1-1.3,1.5-2.9,1.4-4.5
		c0-0.9-0.1-1.8-0.5-2.7c-0.3-0.7-0.8-1.4-1.5-1.8c-1.5-0.9-3.1-1.7-4.8-2.4c-1.9-0.7-3.6-1.8-5-3.2c-1.2-1.3-2-2.9-2.5-4.5
		c-0.6-1.9-0.9-4-0.9-6c0-2.3,0.4-4.6,1.2-6.8c0.7-1.8,1.8-3.4,3.3-4.5c1.5-1.1,3.4-1.6,5.2-1.5c2.9-0.1,5.6,1.2,7.3,3.6
		c1.7,2.4,2.7,5.8,2.8,10.3L457,735c-0.2-2.5-0.7-4.2-1.5-5.2c-0.8-1-2-1.5-3.3-1.5c-1.2-0.1-2.4,0.4-3.3,1.3
		c-0.8,0.9-1.2,2-1.2,3.2c0,1.1,0.3,2.3,1.1,3.2c0.7,0.9,2.3,1.8,4.8,2.8c2.1,0.8,4.1,2,5.8,3.5c1.3,1.3,2.2,3,2.7,4.7
		c0.7,2.3,1,4.6,0.9,7c0.1,3.5-0.8,7-2.6,10c-1.7,2.7-4.4,4.1-8.1,4.1C446,768.1,442.4,762.9,441.7,752.4L441.7,752.4z M466.3,752.4
		l5.2-0.9c0.6,5.9,2.5,8.8,5.8,8.8c1.5,0.1,2.9-0.6,3.8-1.8c1-1.3,1.5-2.9,1.4-4.5c0-0.9-0.1-1.8-0.5-2.7c-0.3-0.7-0.8-1.4-1.5-1.8
		c-1.5-0.9-3.1-1.7-4.8-2.4c-1.9-0.7-3.6-1.8-5-3.2c-1.2-1.3-2-2.9-2.5-4.5c-0.6-1.9-0.9-4-0.9-6c0-2.3,0.4-4.6,1.2-6.8
		c0.7-1.8,1.8-3.4,3.3-4.5c1.5-1.1,3.3-1.6,5.2-1.5c2.9-0.1,5.6,1.2,7.3,3.6c1.7,2.4,2.7,5.8,2.8,10.3l-5.3,0.4
		c-0.2-2.5-0.7-4.2-1.5-5.2c-0.8-1-2-1.5-3.3-1.5c-1.2-0.1-2.4,0.4-3.3,1.3c-0.8,0.9-1.2,2-1.2,3.2c0,1.1,0.3,2.3,1,3.2
		c0.7,0.9,2.3,1.8,4.9,2.8c2.1,0.8,4.1,2,5.8,3.5c1.3,1.3,2.2,3,2.7,4.7c0.7,2.3,1,4.6,0.9,7c0.1,3.5-0.8,7-2.6,10
		c-1.7,2.7-4.4,4.1-8.1,4.1C470.6,768.1,467,762.9,466.3,752.4L466.3,752.4z M508.4,767.4v-38.2h-7.8v-7.8h21v7.8h-7.8v38.2H508.4z
		 M525,767.4v-46h5.3v18.1h10.5v-18.1h5.3v46h-5.3v-20.1h-10.5v20.1H525z M551.6,767.4v-46h11.2c2.9,0,4.9,0.4,6.1,1.2
		c1.4,1.1,2.5,2.6,3,4.3c0.8,2.3,1.2,4.8,1.2,7.3c0.1,3-0.5,6-1.8,8.7c-1,2.1-2.9,3.6-5.1,4.1c1.1,1.1,2.1,2.4,2.8,3.8
		c1.2,2.4,2.2,4.9,3.1,7.5l3.2,9h-6.3l-3.9-10c-0.8-2.3-1.8-4.6-2.8-6.8c-0.4-0.8-0.9-1.4-1.6-1.9c-0.8-0.4-1.8-0.6-2.7-0.5h-1.1
		v19.2H551.6z M556.9,740.9h4c1.6,0.1,3.1,0,4.6-0.5c0.7-0.4,1.3-1,1.6-1.8c0.5-1.2,0.7-2.4,0.6-3.7c0-1.2-0.2-2.4-0.7-3.5
		c-0.3-0.8-0.9-1.4-1.7-1.8c-1.4-0.3-2.9-0.4-4.3-0.3h-4.2L556.9,740.9z M577.1,744.7c-0.1-4.6,0.5-9.1,1.7-13.5
		c0.8-3,2.3-5.7,4.4-7.9c1.8-1.7,4.2-2.7,6.7-2.6c3.8,0,6.9,2.1,9.2,6.2c2.4,4.1,3.6,10,3.6,17.5c0,7.7-1.3,13.7-3.8,18
		c-2.2,3.8-5.2,5.7-9,5.7c-3.8,0-6.8-1.9-9-5.7C578.4,758.1,577.2,752.2,577.1,744.7L577.1,744.7z M582.6,744.4
		c0,5.3,0.7,9.2,2.1,11.9s3.1,4,5.2,4c2.1,0,3.8-1.3,5.2-3.9s2.1-6.7,2.1-12.1s-0.7-9.3-2-11.8c-1.3-2.6-3.1-3.8-5.3-3.8
		c-2.2,0-3.9,1.3-5.3,3.8S582.7,739,582.6,744.4L582.6,744.4z M606.8,721.4h5.3v24.9c0,3.9,0.1,6.4,0.2,7.5c0.1,1.7,0.7,3.3,1.7,4.7
		c0.8,1.1,2.1,1.7,3.5,1.7c1.1,0,2.2-0.4,3-1.2c0.8-0.9,1.4-2,1.6-3.3c0.4-3,0.5-6,0.4-8.9v-25.4h5.3v24.1c0.1,4.5-0.1,8.9-0.7,13.4
		c-0.3,2.5-1.4,4.8-3.1,6.7c-1.7,1.7-4,2.7-6.4,2.6c-2.3,0.1-4.6-0.6-6.4-2.1c-1.7-1.6-2.8-3.7-3.4-6c-0.7-2.6-1-7.3-1-14.2
		L606.8,721.4L606.8,721.4z M645.8,750.4v-7.8h11.5V761c-1.2,2-2.9,3.7-4.9,5c-1.9,1.3-4.1,2.1-6.4,2.1c-2.6,0-5.1-0.9-6.9-2.7
		c-2.3-2.3-3.9-5.1-4.7-8.2c-1.2-4.2-1.8-8.5-1.7-12.8c-0.1-4.4,0.5-8.8,1.8-13c0.8-3,2.4-5.8,4.6-8.1c1.8-1.7,4.2-2.7,6.8-2.7
		c2.9-0.1,5.7,1.2,7.6,3.4c1.9,2.3,3.1,5.6,3.7,10.1l-5.3,1.7c-0.2-2-1-3.8-2.2-5.4c-0.9-1.2-2.3-1.9-3.8-1.9
		c-2.3,0-4.1,1.3-5.5,3.8s-2.1,6.3-2.1,11.5c0,5.5,0.8,9.7,2.3,12.6c1.3,2.5,3.1,3.7,5.3,3.7c1.2,0,2.3-0.4,3.2-1
		c1.2-0.8,2.2-1.7,3-2.9v-5.8L645.8,750.4z M662.2,767.4v-46h5.3v18.1H678v-18.1h5.3v46H678v-20.1h-10.5v20.1H662.2z M699.1,767.4
		v-46h5.3v20.4l10.8-20.4h7.2l-9.9,17.9l10.5,28.1H716l-7.3-21.6l-4.3,7.7v13.9H699.1z M725.7,767.4v-46h5.2l10.8,30.7v-30.7h5v46
		h-5.4l-10.6-30v30H725.7z M751.2,744.7c-0.1-4.6,0.4-9.1,1.7-13.5c0.8-3,2.3-5.7,4.4-7.9c1.8-1.7,4.2-2.6,6.7-2.6
		c3.8,0,6.9,2.1,9.2,6.2s3.6,10,3.6,17.6c0,7.7-1.3,13.7-3.8,18c-2.2,3.8-5.2,5.7-9,5.7s-6.8-1.9-9-5.7
		C752.5,758.1,751.3,752.2,751.2,744.7L751.2,744.7z M756.7,744.4c0,5.3,0.7,9.2,2.1,11.9c1.4,2.6,3.1,4,5.2,4
		c2.1,0,3.8-1.3,5.2-3.9s2.1-6.7,2.1-12.1s-0.7-9.3-2-11.8s-3.1-3.8-5.3-3.8s-3.9,1.3-5.3,3.8S756.8,739,756.7,744.4L756.7,744.4z
		 M784.7,767.4l-6.3-46h5.5l3.9,31.5l4.8-31.5h6.4l4.6,32.1l4-32.1h5.3l-6.4,46H801l-5.3-34.3l-5.2,34.3H784.7z M815.9,767.4v-45.6
		h5.3v37.8h13.3v7.8H815.9z M838.3,767.4v-46h19.6v7.8h-14.3v10.2h13.3v7.7h-13.3v12.5h14.8v7.8H838.3z M862.9,721.4h9.7
		c1.9-0.1,3.9,0.3,5.6,1.2c1.5,1,2.6,2.4,3.5,4c1.2,2.3,2,4.7,2.5,7.2c0.7,3.6,1,7.4,0.9,11.1c0,3.5-0.3,7-0.9,10.4
		c-0.5,2.4-1.3,4.8-2.4,7c-0.8,1.6-2,2.9-3.5,3.9c-1.6,0.9-3.4,1.4-5.3,1.3h-10V721.4z M868.2,729.2v30.4h4c1.3,0.1,2.6-0.1,3.7-0.7
		c0.8-0.5,1.5-1.2,1.9-2.1c0.6-1.4,1-2.9,1.2-4.4c0.6-5.3,0.6-10.7,0-16c-0.2-1.6-0.7-3.2-1.5-4.6c-0.6-1-1.4-1.8-2.5-2.2
		c-1.4-0.4-2.9-0.5-4.3-0.4L868.2,729.2z M901.8,750.4v-7.8h11.5V761c-1.2,2-2.9,3.7-4.9,5c-1.9,1.3-4.1,2.1-6.4,2.1
		c-2.6,0-5-1-6.9-2.7c-2.3-2.3-3.9-5.1-4.7-8.2c-1.2-4.1-1.8-8.4-1.7-12.8c-0.1-4.4,0.5-8.8,1.8-13c0.8-3,2.4-5.8,4.6-8.1
		c1.8-1.7,4.2-2.7,6.8-2.7c2.9-0.1,5.7,1.2,7.6,3.4c1.9,2.3,3.1,5.6,3.7,10.1l-5.3,1.7c-0.2-2-1-3.8-2.2-5.4
		c-0.9-1.2-2.3-1.9-3.8-1.9c-2.3,0-4.1,1.3-5.5,3.8s-2.1,6.3-2.1,11.5c0,5.5,0.8,9.7,2.3,12.6c1.3,2.5,3.1,3.7,5.3,3.7
		c1.2,0,2.3-0.4,3.2-1c1.2-0.8,2.2-1.7,3-2.9v-5.8L901.8,750.4z M918.2,767.4v-46h19.6v7.8h-14.3v10.2h13.3v7.7h-13.3v12.5h14.8v7.8
		H918.2z"/>
</g>
</svg>
