<svg xmlns="http://www.w3.org/2000/svg" xml:space="preserve" width="655.359" height="655.359" style="shape-rendering:geometricPrecision;text-rendering:geometricPrecision;image-rendering:optimizeQuality;fill-rule:evenodd;clip-rule:evenodd" viewBox="0 0 6.827 6.827"><defs><clipPath id="id0"><path d="M3.413 0a3.413 3.413 0 1 1 0 6.827 3.413 3.413 0 0 1 0-6.827z"/></clipPath><style>.fil14{fill:#33691e}.fil15{fill:#4b772d}.fil6{fill:#4fc3f7}.fil12{fill:#558b2f}.fil4{fill:#90a4ae}.fil9{fill:#93806e}.fil8{fill:#d50000}.fil1{fill:#f4511e}.fil11,.fil7{fill:#47241a;fill-rule:nonzero}.fil11{fill:#4dd0e1}</style></defs><g id="Layer_x0020_1"><path d="M3.413 0a3.413 3.413 0 1 1 0 6.827 3.413 3.413 0 0 1 0-6.827z" style="fill:#ff7043"/><g style="clip-path:url(#id0)"><g id="_457168232"><path id="_4546115201" class="fil1" d="M4.142 1.55 7.93 5.334v.13L4.142 1.68z"/><path id="_454611952" class="fil1" d="m4.057 2.992 3.786 3.786v.016L4.057 3.007z"/><path id="_454612384" class="fil1" d="m4.057 2.637 3.786 3.786.004.005.004.006.003.005.003.006.003.005.002.006.003.006.002.006.002.006.002.005.001.006.001.006.001.006.001.006.001.006v.035l-.001.006-.001.006-.001.005-.002.006-.001.005-.002.006-.002.005-.002.005-.002.006-.002.005-.003.005-3.786-3.787.002-.005.003-.005.002-.005.002-.005.002-.006.002-.005.001-.006.002-.005v-.006l.002-.005v-.012l.001-.006V2.717l-.002-.006v-.006l-.002-.006-.002-.006-.001-.006-.002-.006-.002-.005-.003-.006-.002-.006-.003-.005-.003-.006-.004-.006-.003-.005z"/><path id="_454612408" class="fil1" d="m4.057 1.679 3.786 3.786v.958L4.057 2.637z"/><path id="_454612912" class="fil1" d="M4.142 1.679 7.93 5.465h-.086L4.057 1.68z"/><path id="_454612240" class="fil1" d="m5.28 2.326 3.786 3.786-.018.012-.018.013-.018.013-.017.013-.016.014-.017.014-.015.015-.016.014-.015.015-.015.016-.015.015-.014.015-.014.016-.014.015-.013.016-.013.016-.014.015-.012.016-.013.015-.013.016-.012.015-.012.015-.012.014-.013.015-.012.014-.011.014-.012.013-.012.013-.012.012-.012.012-.012.012-.012.01L4.836 2.78l.012-.011.012-.012.012-.012.012-.012.011-.013.012-.014.012-.013.012-.015.012-.014.012-.015.013-.015.012-.015.013-.015.012-.015.013-.016.013-.015.014-.016.013-.016.014-.015.014-.016.014-.015.015-.016.015-.015.015-.015.015-.015.016-.014.016-.014.017-.014.017-.014.018-.013.018-.012z"/><path id="_454612816" class="fil1" d="m1.755 1.679 3.787 3.786h-.086L1.67 1.68z"/><path id="_454612888" class="fil1" d="m5.031 5.182 3.786 3.786V8.979l-.001.002v.001L5.029 5.196v-.002l.001-.001v-.008l.001-.001z"/><path id="_454612672" class="fil1" d="m4.07 2.817 3.787 3.787.003.003.003.004.003.003.003.004.004.003.003.004.003.003.003.004.003.004.003.003.003.004.003.003.003.004.003.003.003.004.004.003L4.12 2.874l-.003-.004-.003-.003-.003-.004-.003-.003-.003-.004-.003-.003-.003-.004-.003-.003-.004-.004-.003-.003-.003-.004-.003-.003-.003-.004-.003-.003-.003-.004z"/><path id="_454613704" class="fil1" d="m4.203 2.838 3.786 3.786-.005.005-.004.006-.004.005-.005.005-.004.005-.004.006-.005.005-.004.005-.005.005-.004.006-.004.005-.005.005-.004.005-.005.006-.004.005-.005.005-.004.006-.005.005-.004.005-.005.006-.004.005-.005.005-.005.005-.004.006-.005.005-.005.005-.004.006-.005.005-.005.005-.005.006-.005.005-.004.005-3.787-3.786.005-.005.005-.006.005-.005.005-.005.004-.006.005-.005.005-.005.004-.006.005-.005.005-.005.004-.005.005-.006.004-.005.005-.005.004-.006.005-.005.004-.005.005-.005.004-.006.005-.005.004-.005.005-.006.004-.005.005-.005.004-.005.004-.006.005-.005.004-.005.004-.005.005-.006.004-.005z"/><path id="_454613632" class="fil1" d="m4.836 2.78 3.786 3.786-.027.023-.027.022-.026.02-.026.018-.026.017-.025.015-.025.013-.024.012-.024.01-.024.009-.023.007-.023.006-.022.005-.022.003-.02.002h-.041l-.02-.001-.02-.003-.018-.004-.017-.005-.018-.006-.016-.006-.016-.008-.015-.009-.015-.01-.014-.01-.013-.01-.013-.012-.012-.013-3.786-3.786.012.012.013.012.013.011.014.01.014.01.016.009.016.007.016.007.017.006.018.005.019.004.019.002.02.002h.04l.021-.002.022-.004.022-.004.023-.006.023-.007.023-.01.024-.01.025-.011.025-.014.025-.014.026-.017.026-.018.026-.02.027-.022z"/><path id="_454613248" class="fil1" d="m5.206 3.007 3.786 3.787v.13L5.206 3.136z"/><path id="_454613320" class="fil1" d="m5.206 3.137 3.786 3.786h-.175L5.031 3.137z"/><path id="_454613032" class="fil1" d="m5.031 3.137 3.786 3.786v2.045L5.031 5.182z"/><path id="_454613296" class="fil1" d="m5.227 5.196 3.786 3.786v.082L5.227 5.277z"/><path id="_454613080" class="fil1" d="m5.227 5.277 3.786 3.787h-3.68L1.547 5.277z"/><path id="_457168160" class="fil1" d="M4.181 2.804c-.149-.277.094-.792 1.099-.478-.199.127-.317.34-.444.454-.29.26-.527.208-.633.058-.047.055-.094.113-.146.169v-.015.015h1.149v.13h-.175v2.045c0 .005 0 .01-.002.014h.198v.081h-3.68v-.08h.21a.089.089 0 0 1-.002-.018v-3.5H1.67v-.13h2.472v.13h-.085v.958a.171.171 0 0 1 .014.18c.016.02.033.038.05.057l.06-.07z"/></g></g><path d="M3.413 0a3.413 3.413 0 1 1 0 6.827 3.413 3.413 0 0 1 0-6.827z" style="fill:none"/><path d="M3.882 5.196a.064.064 0 0 1-.002-.014l.089-.075v-1.95c-.05 0-.089-.033-.089-.075 0-.041.04-.075.089-.075h.973c.05 0 .089.034.089.075v2.1c0 .005 0 .01-.002.014H3.882z" style="fill:#bfae94;fill-rule:nonzero"/><path class="fil4" d="M2.286 4.47H2.11v.443h.177zM3.703 4.47h-.177v.443h.177zM3.516 4.239a.088.088 0 0 1-.156.082.352.352 0 0 0-.166-.144.68.68 0 0 0-.288-.06.682.682 0 0 0-.283.058.362.362 0 0 0-.167.14.088.088 0 0 1-.153-.087.536.536 0 0 1 .246-.213.86.86 0 0 1 .357-.075c.133 0 .259.028.364.078.11.052.197.128.246.22z"/><path d="M3.969 1.55H1.844a.089.089 0 0 0-.089.088v3.541c0 .006 0 .012.002.017h.905v-.814h.489v.814h.904a.089.089 0 0 0 .002-.017V1.638a.089.089 0 0 0-.088-.089z" style="fill:#dbcbb1"/><path class="fil6" d="M2.995 1.906h-.177v.193h.177z"/><path class="fil7" d="M2.995 1.898h-.177a.008.008 0 0 0-.009.008v.193c0 .005.004.009.009.009h.177a.008.008 0 0 0 .008-.009v-.193a.008.008 0 0 0-.008-.008zm-.169.016h.16v.177h-.16v-.177z"/><path class="fil6" d="M2.64 1.906h-.176v.193h.177z"/><path class="fil7" d="M2.64 1.898h-.176a.008.008 0 0 0-.009.008v.193c0 .005.004.009.009.009h.177a.008.008 0 0 0 .008-.009v-.193a.008.008 0 0 0-.008-.008zm-.168.016h.16v.177h-.16v-.177z"/><path class="fil6" d="M2.286 1.906H2.11v.193h.177z"/><path class="fil7" d="M2.286 1.898H2.11a.008.008 0 0 0-.008.008v.193c0 .005.004.009.008.009h.177a.008.008 0 0 0 .009-.009v-.193a.008.008 0 0 0-.009-.008zm-.168.016h.16v.177h-.16v-.177z"/><path class="fil6" d="M2.995 2.293h-.177v.193h.177z"/><path class="fil7" d="M2.995 2.284h-.177a.008.008 0 0 0-.009.009v.193c0 .005.004.008.009.008h.177a.008.008 0 0 0 .008-.008v-.193a.008.008 0 0 0-.008-.009zm-.169.017h.16v.177h-.16V2.3z"/><path class="fil6" d="M2.995 2.68h-.177v.193h.177z"/><path class="fil7" d="M2.995 2.671h-.177a.008.008 0 0 0-.009.008v.194c0 .004.004.008.009.008h.177a.008.008 0 0 0 .008-.008v-.194a.008.008 0 0 0-.008-.008zm-.169.017h.16v.177h-.16v-.177z"/><path class="fil6" d="M2.995 3.066h-.177v.194h.177z"/><path class="fil7" d="M2.995 3.058h-.177a.008.008 0 0 0-.009.008v.194c0 .004.004.008.009.008h.177a.008.008 0 0 0 .008-.008v-.194a.008.008 0 0 0-.008-.008zm-.169.017h.16v.176h-.16v-.176z"/><path class="fil6" d="M2.995 3.453h-.177v.193h.177z"/><path class="fil7" d="M2.995 3.445h-.177a.008.008 0 0 0-.009.008v.193c0 .005.004.009.009.009h.177a.008.008 0 0 0 .008-.009v-.193a.008.008 0 0 0-.008-.008zm-.169.016h.16v.177h-.16v-.177z"/><path class="fil6" d="M2.995 3.84h-.177v.193h.177z"/><path class="fil7" d="M2.995 3.831h-.177a.008.008 0 0 0-.009.009v.193c0 .005.004.008.009.008h.177a.008.008 0 0 0 .008-.008V3.84a.008.008 0 0 0-.008-.009zm-.169.017h.16v.177h-.16v-.177z"/><path class="fil6" d="M2.64 2.293h-.176v.193h.177z"/><path class="fil7" d="M2.64 2.284h-.176a.008.008 0 0 0-.009.009v.193c0 .005.004.008.009.008h.177a.008.008 0 0 0 .008-.008v-.193a.008.008 0 0 0-.008-.009zm-.168.017h.16v.177h-.16V2.3z"/><path class="fil6" d="M2.64 2.68h-.176v.193h.177z"/><path class="fil7" d="M2.64 2.671h-.176a.008.008 0 0 0-.009.008v.194c0 .004.004.008.009.008h.177a.008.008 0 0 0 .008-.008v-.194a.008.008 0 0 0-.008-.008zm-.168.017h.16v.177h-.16v-.177z"/><path class="fil6" d="M2.64 3.066h-.176v.194h.177z"/><path class="fil7" d="M2.64 3.058h-.176a.008.008 0 0 0-.009.008v.194c0 .004.004.008.009.008h.177a.008.008 0 0 0 .008-.008v-.194a.008.008 0 0 0-.008-.008zm-.168.017h.16v.176h-.16v-.176z"/><path class="fil6" d="M2.64 3.453h-.176v.193h.177z"/><path class="fil7" d="M2.64 3.445h-.176a.008.008 0 0 0-.009.008v.193c0 .005.004.009.009.009h.177a.008.008 0 0 0 .008-.009v-.193a.008.008 0 0 0-.008-.008zm-.168.016h.16v.177h-.16v-.177z"/><path class="fil6" d="M2.64 3.84h-.176v.193h.177z"/><path class="fil7" d="M2.64 3.831h-.176a.008.008 0 0 0-.009.009v.193c0 .005.004.008.009.008h.177a.008.008 0 0 0 .008-.008V3.84a.008.008 0 0 0-.008-.009zm-.168.017h.16v.177h-.16v-.177z"/><path class="fil6" d="M2.286 2.293H2.11v.193h.177z"/><path class="fil7" d="M2.286 2.284H2.11a.008.008 0 0 0-.008.009v.193c0 .005.004.008.008.008h.177a.008.008 0 0 0 .009-.008v-.193a.008.008 0 0 0-.009-.009zm-.168.017h.16v.177h-.16V2.3z"/><path class="fil6" d="M2.286 2.68H2.11v.193h.177z"/><path class="fil7" d="M2.286 2.671H2.11a.008.008 0 0 0-.008.008v.194c0 .004.004.008.008.008h.177a.008.008 0 0 0 .009-.008v-.194a.008.008 0 0 0-.009-.008zm-.168.017h.16v.177h-.16v-.177z"/><path class="fil6" d="M2.286 3.066H2.11v.194h.177z"/><path class="fil7" d="M2.286 3.058H2.11a.008.008 0 0 0-.008.008v.194c0 .004.004.008.008.008h.177a.008.008 0 0 0 .009-.008v-.194a.008.008 0 0 0-.009-.008zm-.168.017h.16v.176h-.16v-.176z"/><path class="fil6" d="M2.286 3.453H2.11v.193h.177z"/><path class="fil7" d="M2.286 3.445H2.11a.008.008 0 0 0-.008.008v.193c0 .005.004.009.008.009h.177a.008.008 0 0 0 .009-.009v-.193a.008.008 0 0 0-.009-.008zm-.168.016h.16v.177h-.16v-.177z"/><path class="fil6" d="M2.286 3.84H2.11v.193h.177z"/><path class="fil7" d="M2.286 3.831H2.11a.008.008 0 0 0-.008.009v.193c0 .005.004.008.008.008h.177a.008.008 0 0 0 .009-.008V3.84a.008.008 0 0 0-.009-.009zm-.168.017h.16v.177h-.16v-.177z"/><path class="fil6" d="M3.349 1.906h-.177v.193h.177z"/><path class="fil7" d="M3.349 1.898h-.177a.008.008 0 0 0-.009.008v.193c0 .005.004.009.009.009h.177a.008.008 0 0 0 .008-.009v-.193a.008.008 0 0 0-.008-.008zm-.169.016h.16v.177h-.16v-.177z"/><path class="fil6" d="M3.703 2.293h-.177v.193h.177z"/><path class="fil7" d="M3.703 2.284h-.177a.008.008 0 0 0-.008.009v.193c0 .005.003.008.008.008h.177a.008.008 0 0 0 .008-.008v-.193a.008.008 0 0 0-.008-.009zm-.169.017h.16v.177h-.16V2.3z"/><path class="fil6" d="M3.703 2.68h-.177v.193h.177z"/><path class="fil7" d="M3.703 2.671h-.177a.008.008 0 0 0-.008.008v.194c0 .004.003.008.008.008h.177a.008.008 0 0 0 .008-.008v-.194a.008.008 0 0 0-.008-.008zm-.169.017h.16v.177h-.16v-.177z"/><path class="fil6" d="M3.703 3.066h-.177v.194h.177z"/><path class="fil7" d="M3.703 3.058h-.177a.008.008 0 0 0-.008.008v.194c0 .004.003.008.008.008h.177a.008.008 0 0 0 .008-.008v-.194a.008.008 0 0 0-.008-.008zm-.169.017h.16v.176h-.16v-.176z"/><path class="fil6" d="M3.703 3.453h-.177v.193h.177z"/><path class="fil7" d="M3.703 3.445h-.177a.008.008 0 0 0-.008.008v.193c0 .005.003.009.008.009h.177a.008.008 0 0 0 .008-.009v-.193a.008.008 0 0 0-.008-.008zm-.169.016h.16v.177h-.16v-.177z"/><path class="fil6" d="M3.703 3.84h-.177v.193h.177z"/><path class="fil7" d="M3.703 3.831h-.177a.008.008 0 0 0-.008.009v.193c0 .005.003.008.008.008h.177a.008.008 0 0 0 .008-.008V3.84a.008.008 0 0 0-.008-.009zm-.169.017h.16v.177h-.16v-.177z"/><path class="fil6" d="M3.349 2.293h-.177v.193h.177z"/><path class="fil7" d="M3.349 2.284h-.177a.008.008 0 0 0-.009.009v.193c0 .005.004.008.009.008h.177a.008.008 0 0 0 .008-.008v-.193a.008.008 0 0 0-.008-.009zm-.169.017h.16v.177h-.16V2.3z"/><path class="fil6" d="M3.349 2.68h-.177v.193h.177z"/><path class="fil7" d="M3.349 2.671h-.177a.008.008 0 0 0-.009.008v.194c0 .004.004.008.009.008h.177a.008.008 0 0 0 .008-.008v-.194a.008.008 0 0 0-.008-.008zm-.169.017h.16v.177h-.16v-.177z"/><path class="fil6" d="M3.349 3.066h-.177v.194h.177z"/><path class="fil7" d="M3.349 3.058h-.177a.008.008 0 0 0-.009.008v.194c0 .004.004.008.009.008h.177a.008.008 0 0 0 .008-.008v-.194a.008.008 0 0 0-.008-.008zm-.169.017h.16v.176h-.16v-.176z"/><path class="fil6" d="M3.349 3.453h-.177v.193h.177z"/><path class="fil7" d="M3.349 3.445h-.177a.008.008 0 0 0-.009.008v.193c0 .005.004.009.009.009h.177a.008.008 0 0 0 .008-.009v-.193a.008.008 0 0 0-.008-.008zm-.169.016h.16v.177h-.16v-.177z"/><path class="fil6" d="M3.349 3.84h-.177v.193h.177z"/><path class="fil7" d="M3.349 3.831h-.177a.008.008 0 0 0-.009.009v.193c0 .005.004.008.009.008h.177a.008.008 0 0 0 .008-.008V3.84a.008.008 0 0 0-.008-.009zm-.169.017h.16v.177h-.16v-.177z"/><path class="fil6" d="M3.703 1.906h-.177v.193h.177z"/><path class="fil7" d="M3.703 1.898h-.177a.008.008 0 0 0-.008.008v.193c0 .005.003.009.008.009h.177a.008.008 0 0 0 .008-.009v-.193a.008.008 0 0 0-.008-.008zm-.169.016h.16v.177h-.16v-.177z"/><path class="fil8" d="M3.494 1.876h.241v.036h-.241zM3.494 2.275h.241v.036h-.241zM3.494 2.669h.241v.036h-.241zM3.494 3.051h.241v.036h-.241zM3.494 3.441h.241v.036h-.241zM3.494 3.821h.241v.036h-.241z"/><path class="fil8" d="M3.494 3.051h.241v.036h-.241zM3.14 1.876h.241v.036H3.14zM3.14 2.275h.241v.036H3.14zM3.14 2.669h.241v.036H3.14zM3.14 3.051h.241v.036H3.14zM3.14 3.441h.241v.036H3.14zM3.14 3.821h.241v.036H3.14z"/><path class="fil8" d="M3.14 3.051h.241v.036H3.14z"/><path class="fil6" d="M4.8 3.279h-.178v.193H4.8z"/><path class="fil7" d="M4.8 3.27h-.178a.008.008 0 0 0-.008.009v.193c0 .005.004.009.008.009H4.8a.008.008 0 0 0 .009-.009V3.28a.008.008 0 0 0-.009-.008zm-.17.017h.16v.177h-.16v-.177z"/><path class="fil6" d="M4.8 3.666h-.178v.193H4.8z"/><path class="fil7" d="M4.8 3.658h-.178a.008.008 0 0 0-.008.008v.193c0 .005.004.009.008.009H4.8a.008.008 0 0 0 .009-.009v-.193a.008.008 0 0 0-.009-.008zm-.17.016h.16v.177h-.16v-.177z"/><path class="fil6" d="M4.8 4.053h-.178v.193H4.8z"/><path class="fil7" d="M4.8 4.044h-.178a.008.008 0 0 0-.008.009v.193c0 .005.004.008.008.008H4.8a.008.008 0 0 0 .009-.008v-.193a.008.008 0 0 0-.009-.009zm-.17.017h.16v.177h-.16V4.06z"/><path class="fil6" d="M4.8 4.44h-.178v.193H4.8z"/><path class="fil7" d="M4.8 4.431h-.178a.008.008 0 0 0-.008.008v.194c0 .004.004.008.008.008H4.8a.008.008 0 0 0 .009-.008v-.194a.008.008 0 0 0-.009-.008zm-.17.017h.16v.176h-.16v-.176z"/><path class="fil6" d="M4.8 4.826h-.178v.194H4.8z"/><path class="fil7" d="M4.8 4.818h-.178a.008.008 0 0 0-.008.008v.194c0 .004.004.008.008.008H4.8a.008.008 0 0 0 .009-.008v-.194a.008.008 0 0 0-.009-.008zm-.17.016h.16v.177h-.16v-.177z"/><path class="fil6" d="M4.445 3.279h-.177v.193h.177z"/><path class="fil7" d="M4.445 3.27h-.177a.008.008 0 0 0-.008.009v.193c0 .005.003.009.008.009h.177a.008.008 0 0 0 .008-.009V3.28a.008.008 0 0 0-.008-.008zm-.169.017h.16v.177h-.16v-.177z"/><path class="fil6" d="M4.445 3.666h-.177v.193h.177z"/><path class="fil7" d="M4.445 3.658h-.177a.008.008 0 0 0-.008.008v.193c0 .005.003.009.008.009h.177a.008.008 0 0 0 .008-.009v-.193a.008.008 0 0 0-.008-.008zm-.169.016h.16v.177h-.16v-.177z"/><path class="fil6" d="M4.445 4.053h-.177v.193h.177z"/><path class="fil7" d="M4.445 4.044h-.177a.008.008 0 0 0-.008.009v.193c0 .005.003.008.008.008h.177a.008.008 0 0 0 .008-.008v-.193a.008.008 0 0 0-.008-.009zm-.169.017h.16v.177h-.16V4.06z"/><path class="fil6" d="M4.445 4.44h-.177v.193h.177z"/><path class="fil7" d="M4.445 4.431h-.177a.008.008 0 0 0-.008.008v.194c0 .004.003.008.008.008h.177a.008.008 0 0 0 .008-.008v-.194a.008.008 0 0 0-.008-.008zm-.169.017h.16v.176h-.16v-.176z"/><path class="fil6" d="M4.445 4.826h-.177v.194h.177z"/><path class="fil7" d="M4.445 4.818h-.177a.008.008 0 0 0-.008.008v.194c0 .004.003.008.008.008h.177a.008.008 0 0 0 .008-.008v-.194a.008.008 0 0 0-.008-.008zm-.169.016h.16v.177h-.16v-.177z"/><path class="fil8" d="M4.59 3.261h.241v.036H4.59zM4.59 3.655h.241v.036H4.59zM4.59 4.037h.241v.036H4.59zM4.59 4.428h.241v.036H4.59zM4.59 4.807h.241v.036H4.59z"/><path class="fil8" d="M4.59 4.037h.241v.036H4.59zM4.236 3.261h.241v.036h-.241zM4.236 3.655h.241v.036h-.241zM4.236 4.037h.241v.036h-.241zM4.236 4.428h.241v.036h-.241zM4.236 4.807h.241v.036h-.241z"/><path class="fil8" d="M4.236 4.037h.241v.036h-.241zM2.786 1.876h.241v.036h-.241zM2.786 2.275h.241v.036h-.241zM2.786 2.669h.241v.036h-.241zM2.786 3.051h.241v.036h-.241zM2.786 3.441h.241v.036h-.241zM2.786 3.821h.241v.036h-.241z"/><path class="fil8" d="M2.786 3.051h.241v.036h-.241zM2.432 1.876h.241v.036h-.241zM2.432 2.275h.241v.036h-.241zM2.432 2.669h.241v.036h-.241zM2.432 3.051h.241v.036h-.241zM2.432 3.441h.241v.036h-.241zM2.432 3.821h.241v.036h-.241z"/><path class="fil8" d="M2.432 3.051h.241v.036h-.241zM2.077 1.876h.241v.036h-.241zM2.077 2.275h.241v.036h-.241zM2.077 2.669h.241v.036h-.241zM2.077 3.051h.241v.036h-.241zM2.077 3.441h.241v.036h-.241zM2.077 3.821h.241v.036h-.241z"/><path class="fil8" d="M2.077 3.051h.241v.036h-.241z"/><path class="fil9" d="M1.67 1.549h2.472v.13H1.67zM4.057 3.007h1.149v.13H4.057z"/><path style="fill:#80deea" d="M2.591 4.363h.631v.905h-.631z"/><path class="fil7" d="M3.222 4.345H2.57v.923h.041v-.882h.59v.882h.042v-.923z"/><path class="fil11" d="M2.883 4.386v.883h.046v-.883z"/><path class="fil11" d="M3.201 4.808h-.59v.046h.59z"/><path class="fil12" d="M3.442 4.241H2.37a.156.156 0 0 0-.156.156h1.384a.156.156 0 0 0-.156-.156z"/><path style="fill:#455a64" d="M1.547 5.196h3.68v.081h-3.68z"/><path class="fil14" d="M5.28 2.326c-.199.127-.317.34-.444.454-.808.722-1.193-.966.444-.454z"/><path class="fil12" d="M4.056 2.946c.168-.185.309-.387.592-.486.114-.04.138-.057.263-.072H4.91c.051-.001.072.005.12.015-.04 0-.011.001-.06-.003-.114-.01-.21.04-.315.08-.294.114-.411.325-.598.527v-.06z"/><path class="fil12" d="m4.56 2.498.06.001c.103.006.127 0 .23.028h-.001c.04.016.054.028.089.05-.032-.011-.01-.002-.046-.02-.087-.045-.178-.037-.272-.04-.021 0-.041 0-.06.002a.028.028 0 0 0 0-.02zM4.359 2.624h.003c.122.007.15 0 .272.034h-.002c.048.018.065.032.106.059-.037-.014-.011-.003-.054-.025-.103-.053-.21-.043-.322-.046h-.003a.033.033 0 0 0 0-.022zM4.682 2.468a.412.412 0 0 0 .024-.03c.038-.053.053-.065.07-.12.003-.023-.002-.032-.008-.052-.003.017-.002.005 0 .026.004.05-.042.095-.079.143a.44.44 0 0 1-.026.03c.007 0 .014 0 .02.003zM4.423 2.597l.002-.002c.053-.074.073-.09.102-.172v.001c.007-.033.003-.047 0-.078-.007.026-.004.007-.005.039-.004.075-.065.137-.117.205v.002c.007 0 .013.002.018.005z"/><path class="fil14" d="M3.537 2.585c.097.062.154.165.216.22.392.352.58-.468-.216-.22z"/><path class="fil15" d="M4.132 2.887c-.082-.09-.15-.188-.288-.237-.055-.02-.067-.027-.128-.035-.024 0-.034.003-.058.007h.03c.055-.005.102.019.153.038.142.055.2.158.29.256v-.03z"/><path class="fil15" d="M3.887 2.669h-.03c-.05.003-.061 0-.11.014-.02.008-.027.013-.044.024.016-.005.005 0 .023-.01.042-.021.086-.017.132-.019h.03a.013.013 0 0 1-.001-.01zM3.985 2.73h-.002c-.059.003-.073 0-.132.016-.023.01-.03.016-.05.03l.026-.013c.05-.026.102-.02.156-.022h.001a.016.016 0 0 1 0-.011zM3.828 2.654a.201.201 0 0 1-.012-.015c-.018-.025-.026-.031-.034-.058-.001-.01.001-.015.004-.025v.013c-.002.024.02.046.038.07l.013.014a.02.02 0 0 0-.01.001zM3.953 2.717c-.026-.037-.036-.045-.05-.084-.003-.016-.001-.023 0-.038.003.012.002.004.003.019.001.036.03.066.056.1a.018.018 0 0 0-.009.003z"/><path class="fil6" d="M2.377 4.608h-.258v.28h.257z"/><path class="fil7" d="M2.377 4.596h-.258a.012.012 0 0 0-.012.012v.28c0 .007.006.013.012.013h.257a.012.012 0 0 0 .013-.013v-.28a.012.012 0 0 0-.012-.012zm-.246.024h.233v.256h-.233V4.62z"/><path class="fil8" d="M2.073 4.58h.35v.053h-.35z"/><path class="fil6" d="M3.693 4.608h-.257v.28h.257z"/><path class="fil7" d="M3.693 4.596h-.257a.012.012 0 0 0-.012.012v.28c0 .007.005.013.012.013h.257a.012.012 0 0 0 .012-.013v-.28a.012.012 0 0 0-.012-.012zm-.245.024h.233v.256h-.233V4.62z"/><path class="fil8" d="M3.389 4.58h.35v.053h-.35z"/></g></svg>