<svg xmlns="http://www.w3.org/2000/svg" viewBox="0 0 256 256" style="enable-background:new 0 0 256 256" xml:space="preserve"><style>.st2{fill:none;stroke:#6b1d1d;stroke-width:.5;stroke-miterlimit:10}.st3{fill:#3a312a}.st4{fill:#87796f}.st14{fill:#d7e057}</style><g id="Layer_1"><path class="st4" d="M222.395 180.635H33.605c-9.447 0-17.105-7.658-17.105-17.105V33.241c0-9.447 7.658-17.106 17.105-17.106h188.789c9.447 0 17.105 7.659 17.105 17.106V163.53c.001 9.447-7.657 17.105-17.104 17.105z"/><path class="st3" d="M222.395 182.136H33.605C23.347 182.136 15 173.789 15 163.53V33.241c0-10.259 8.347-18.605 18.605-18.605h188.789c10.259 0 18.605 8.347 18.605 18.605V163.53c.001 10.259-8.346 18.606-18.604 18.606zm-188.79-164.5C25.001 17.636 18 24.637 18 33.241V163.53c0 8.604 7.001 15.605 15.605 15.605h188.789c8.604 0 15.605-7.001 15.605-15.605V33.241c0-8.604-7.001-15.605-15.605-15.605H33.605z"/><path class="st14" d="M86.201 28.635h-45.17c-6.583 0-11.92 5.337-11.92 11.92v115.66c0 6.583 5.337 11.92 11.92 11.92h173.938c6.583 0 11.92-5.337 11.92-11.92V40.555c0-6.583-5.337-11.92-11.92-11.92H86.201z"/><path class="st3" d="M214.969 169.636H41.031c-7.399 0-13.42-6.02-13.42-13.42V40.556c0-7.399 6.021-13.42 13.42-13.42h45.17a1.5 1.5 0 0 1 0 3h-45.17c-5.745 0-10.42 4.675-10.42 10.42v115.66c0 5.745 4.675 10.42 10.42 10.42h173.938c5.745 0 10.42-4.675 10.42-10.42V40.556c0-5.745-4.675-10.42-10.42-10.42H99.799a1.5 1.5 0 0 1 0-3h115.17c7.399 0 13.42 6.021 13.42 13.42v115.66c0 7.399-6.021 13.42-13.42 13.42z"/><path d="M75.4 87.508v56.583a4.508 4.508 0 0 1-4.508 4.508H50.508A4.508 4.508 0 0 1 46 144.091V87.508A4.508 4.508 0 0 1 50.508 83h20.383a4.508 4.508 0 0 1 4.509 4.508z" style="fill:#8ac6dd"/><path class="st3" d="M70.892 150.101H50.508a6.015 6.015 0 0 1-6.008-6.009V87.508a6.015 6.015 0 0 1 6.008-6.008h20.384a6.015 6.015 0 0 1 6.009 6.008v56.584a6.017 6.017 0 0 1-6.009 6.009zM50.508 84.5a3.012 3.012 0 0 0-3.008 3.008v56.584a3.012 3.012 0 0 0 3.008 3.009h20.384a3.013 3.013 0 0 0 3.009-3.009V87.508a3.012 3.012 0 0 0-3.009-3.008H50.508z"/><path d="M142 87.508v56.583a4.508 4.508 0 0 1-4.508 4.508H91.108a4.508 4.508 0 0 1-4.508-4.508V87.508A4.508 4.508 0 0 1 91.108 83h46.383A4.508 4.508 0 0 1 142 87.508z" style="fill:#fae6ca"/><path class="st3" d="M137.492 150.101H91.108a6.016 6.016 0 0 1-6.009-6.009V87.508a6.015 6.015 0 0 1 6.009-6.008h46.384a6.015 6.015 0 0 1 6.008 6.008v56.584a6.015 6.015 0 0 1-6.008 6.009zM91.108 84.5a3.012 3.012 0 0 0-3.009 3.008v56.584a3.013 3.013 0 0 0 3.009 3.009h46.384a3.012 3.012 0 0 0 3.008-3.009V87.508a3.012 3.012 0 0 0-3.008-3.008H91.108z"/><path d="M137.492 48.175H50.508A4.508 4.508 0 0 0 46 52.683v14.129a4.508 4.508 0 0 0 4.508 4.508h86.983a4.508 4.508 0 0 0 4.508-4.508V52.684a4.507 4.507 0 0 0-4.507-4.509z" style="fill:#f16c7a"/><path class="st3" d="M137.492 72.821H50.508a6.015 6.015 0 0 1-6.008-6.008v-14.13a6.015 6.015 0 0 1 6.008-6.008h86.984a6.015 6.015 0 0 1 6.008 6.008v14.13a6.015 6.015 0 0 1-6.008 6.008zM50.508 49.676a3.012 3.012 0 0 0-3.008 3.008v14.13a3.012 3.012 0 0 0 3.008 3.008h86.984a3.012 3.012 0 0 0 3.008-3.008v-14.13a3.012 3.012 0 0 0-3.008-3.008H50.508z"/><path class="st4" d="M113.688 180.635h28.625v35.593h-28.625z"/><path class="st3" d="M142.312 217.729h-28.625a1.5 1.5 0 0 1-1.5-1.5v-35.593a1.5 1.5 0 0 1 1.5-1.5h28.625a1.5 1.5 0 0 1 1.5 1.5v35.593a1.5 1.5 0 0 1-1.5 1.5zm-27.124-3h25.625v-32.593h-25.625v32.593z"/><path class="st4" d="M135.452 239.635h36.252c0-12.927-10.479-23.407-23.407-23.407h-40.593c-12.927 0-23.407 10.48-23.407 23.407h51.155z"/><path class="st3" d="M171.703 241.136h-36.252a1.5 1.5 0 0 1 0-3h34.701c-.773-11.383-10.28-20.407-21.855-20.407h-40.594c-11.575 0-21.082 9.024-21.855 20.407h36.033a1.5 1.5 0 0 1 0 3H84.297a1.5 1.5 0 0 1-1.5-1.5c0-13.734 11.173-24.907 24.906-24.907h40.594c13.733 0 24.906 11.173 24.906 24.907a1.5 1.5 0 0 1-1.5 1.5z"/><path class="st14" d="M47.671 203.469s3.408 12.659 13.222 13.247c0 0-13.1 4.525-13.321 14.202 0 0-2.579-13.572-12.925-14.059 0 0 12.05-1.826 13.024-13.39z"/><path class="st3" d="M47.571 232.417a1.502 1.502 0 0 1-1.473-1.217c-.023-.125-2.494-12.418-11.522-12.844a1.5 1.5 0 0 1-.154-2.982c.441-.068 10.894-1.816 11.754-12.031a1.5 1.5 0 0 1 1.359-1.367c.735-.056 1.393.4 1.584 1.102.031.116 3.259 11.626 11.863 12.141a1.5 1.5 0 0 1 .402 2.914c-.121.042-12.118 4.311-12.312 12.819a1.5 1.5 0 0 1-1.501 1.465zm-7.741-15.729c3.878 1.969 6.23 5.746 7.587 8.877 2.026-4.021 5.941-6.787 8.948-8.427-4.134-1.843-6.783-5.651-8.334-8.723-1.793 4.359-5.27 6.868-8.201 8.273z"/><path class="st14" d="M25.972 220.45s2.411 8.954 9.352 9.369c0 0-9.266 3.201-9.422 10.046 0 0-1.824-9.6-9.142-9.944 0 0 8.524-1.292 9.212-9.471z"/><path class="st3" d="M25.901 241.364a1.5 1.5 0 0 1-1.473-1.22c-.016-.082-1.704-8.441-7.739-8.726a1.5 1.5 0 0 1-.154-2.982c.296-.047 7.364-1.243 7.942-8.113a1.501 1.501 0 0 1 1.361-1.368c.724-.058 1.392.4 1.582 1.102.021.079 2.227 7.92 7.993 8.265a1.499 1.499 0 0 1 .4 2.915c-.081.028-8.282 2.953-8.412 8.661a1.5 1.5 0 0 1-1.5 1.466zm-4.518-11.527c2.107 1.333 3.523 3.395 4.446 5.28 1.376-2.232 3.515-3.872 5.365-4.973-2.287-1.268-3.885-3.35-4.941-5.224-1.174 2.287-3.015 3.876-4.87 4.917z"/><path class="st14" d="M25.972 193.792s2.411 8.954 9.352 9.37c0 0-9.266 3.201-9.422 10.046 0 0-1.824-9.6-9.142-9.944 0-.001 8.524-1.292 9.212-9.472z"/><path class="st3" d="M25.901 214.707a1.5 1.5 0 0 1-1.473-1.22c-.016-.082-1.704-8.442-7.739-8.727a1.5 1.5 0 0 1-.154-2.982c.296-.047 7.364-1.242 7.942-8.113a1.501 1.501 0 0 1 1.361-1.368 1.51 1.51 0 0 1 1.582 1.102c.021.079 2.227 7.921 7.993 8.266a1.499 1.499 0 0 1 .399 2.915c-.08.028-8.281 2.952-8.411 8.661a1.499 1.499 0 0 1-1.5 1.466zm-4.519-11.527c2.108 1.333 3.524 3.395 4.447 5.279 1.376-2.232 3.515-3.871 5.364-4.972-2.286-1.27-3.884-3.35-4.941-5.224-1.173 2.287-3.015 3.876-4.87 4.917z"/><path d="M214.97 30.135h-15c5.74 0 10.42 4.67 10.42 10.42v115.66c0 5.75-4.68 10.42-10.42 10.42h15c5.74 0 10.42-4.67 10.42-10.42V40.555c0-5.75-4.68-10.42-10.42-10.42z" style="fill:#b9c239"/><path class="st3" d="M207.204 55.5H155a1.5 1.5 0 0 1 0-3h52.204a1.5 1.5 0 0 1 0 3zM207.204 73.5H155a1.5 1.5 0 0 1 0-3h52.204a1.5 1.5 0 0 1 0 3zM207.204 91.5H155a1.5 1.5 0 0 1 0-3h52.204a1.5 1.5 0 0 1 0 3zM207.204 109.5H155a1.5 1.5 0 0 1 0-3h52.204a1.5 1.5 0 0 1 0 3zM207.204 127.5H155a1.5 1.5 0 0 1 0-3h52.204a1.5 1.5 0 0 1 0 3zM207.204 145.5H155a1.5 1.5 0 0 1 0-3h52.204a1.5 1.5 0 0 1 0 3z"/></g></svg>