<svg xmlns="http://www.w3.org/2000/svg" viewBox="0 0 256 256" style="enable-background:new 0 0 256 256" xml:space="preserve"><style>.st2{fill:none;stroke:#6b1d1d;stroke-width:.5;stroke-miterlimit:10}.st3{fill:#3a312a}.st4{fill:#87796f}.st8{fill:#f16c7a}.st11{fill:#d6df58}.st14{fill:#d7e057}.st17{fill:#b9c239}.st19{fill:#fae6ca}.st21{fill:#8ac5dc}</style><g id="Layer_1"><path class="st8" d="M175.44 43.757h-29.557v9.651h24.731v6.458c0 14.018-10.938 25.535-24.731 26.452v3.08c0 2.244-.153 4.456-.466 6.611 19.334-.7 34.849-16.64 34.849-36.144V48.583a4.83 4.83 0 0 0-4.826-4.826z"/><path class="st3" d="M145.417 97.511a1.502 1.502 0 0 1-1.484-1.716c.3-2.059.451-4.21.451-6.396v-3.08a1.5 1.5 0 0 1 1.4-1.497c13.082-.869 23.33-11.831 23.33-24.955v-4.959h-23.23a1.5 1.5 0 0 1-1.5-1.5v-9.65a1.5 1.5 0 0 1 1.5-1.5h29.557a6.333 6.333 0 0 1 6.325 6.325v11.284a37.532 37.532 0 0 1-36.294 37.643l-.055.001zm1.967-9.823V89.4c0 1.693-.086 3.37-.256 5.005 17.88-1.537 31.638-16.381 31.638-34.537V48.583a3.328 3.328 0 0 0-3.325-3.325h-28.057v6.65h23.23a1.5 1.5 0 0 1 1.5 1.5v6.459c0 14.227-10.754 26.184-24.73 27.821z"/><path class="st8" d="M51.382 89.399v-3.08c-13.793-.917-24.731-12.434-24.731-26.452v-6.458h24.731v-9.651H21.826A4.83 4.83 0 0 0 17 48.584v11.284C17 79.37 32.514 95.311 51.849 96.01a45.874 45.874 0 0 1-.467-6.611z"/><path class="st3" d="m51.849 97.511-.055-.001A37.532 37.532 0 0 1 15.5 59.867V48.583a6.333 6.333 0 0 1 6.325-6.325h29.557a1.5 1.5 0 0 1 1.5 1.5v9.65a1.5 1.5 0 0 1-1.5 1.5h-23.23v4.959c0 13.124 10.248 24.086 23.33 24.955a1.5 1.5 0 0 1 1.4 1.497v3.08c0 2.186.151 4.337.451 6.396a1.498 1.498 0 0 1-1.484 1.716zM21.825 45.258a3.328 3.328 0 0 0-3.325 3.325v11.284c0 18.155 13.758 33 31.638 34.537a48.495 48.495 0 0 1-.256-5.005v-1.712c-13.976-1.637-24.73-13.594-24.73-27.82v-6.459a1.5 1.5 0 0 1 1.5-1.5h23.23v-6.65H21.825z"/><path class="st14" d="M109.625 136.625v20.152H87.641v-20.152c.388.015.784.022 1.173.022h19.639c.388 0 .783-.007 1.172-.022z"/><path class="st3" d="M109.625 158.277H87.641a1.5 1.5 0 0 1-1.5-1.5v-20.152a1.498 1.498 0 0 1 1.557-1.499c.37.014.746.02 1.116.02h19.639c.37 0 .746-.007 1.116-.02.402-.018.804.136 1.097.419.294.282.46.673.46 1.08v20.152a1.502 1.502 0 0 1-1.501 1.5zm-20.484-3h18.984v-17.131H89.141v17.131z"/><path class="st8" d="M131.726 168.628H65.54v-.362c0-6.347 5.145-11.492 11.492-11.492h43.202c6.347 0 11.492 5.145 11.492 11.492v.362z"/><path class="st3" d="M131.726 170.128H65.54a1.5 1.5 0 0 1-1.5-1.5v-.361c0-7.164 5.828-12.992 12.992-12.992h43.201c7.164 0 12.992 5.828 12.992 12.991v.362a1.5 1.5 0 0 1-1.499 1.5zm-64.622-3h63.057c-.566-4.976-4.803-8.854-9.928-8.854H77.032c-5.125 0-9.36 3.878-9.928 8.854z"/><path class="st8" d="M132.582 168.628H64.684c-6.347 0-11.492 5.145-11.492 11.492v.362h90.882v-.362c0-6.347-5.145-11.492-11.492-11.492z"/><path class="st3" d="M144.074 181.982H53.191a1.5 1.5 0 0 1-1.5-1.5v-.362c0-7.164 5.828-12.992 12.992-12.992h67.898c7.164 0 12.992 5.828 12.992 12.992v.362c.001.829-.671 1.5-1.499 1.5zm-89.318-3h87.754c-.566-4.976-4.803-8.855-9.928-8.855H64.684c-5.125.001-9.362 3.88-9.928 8.855z"/><path class="st14" d="M145.884 34.415v64.801c0 20.672-16.759 37.431-37.431 37.431h-19.64c-20.672 0-37.431-16.759-37.431-37.431V34.415h94.502z"/><path class="st3" d="M108.452 138.146H88.813c-21.467 0-38.932-17.464-38.932-38.931v-64.8a1.5 1.5 0 0 1 1.5-1.5h94.502a1.5 1.5 0 0 1 1.5 1.5v64.801c.001 21.467-17.464 38.93-38.931 38.93zM52.882 35.915v63.301c0 19.812 16.119 35.931 35.932 35.931h19.639c19.813 0 35.932-16.118 35.932-35.931V35.915H52.882z"/><path class="st14" d="M77.94 16.827H52.585a6.805 6.805 0 0 0-6.805 6.805v3.976a6.805 6.805 0 0 0 6.805 6.805h92.096a6.805 6.805 0 0 0 6.805-6.805v-3.976a6.805 6.805 0 0 0-6.805-6.805H77.94z"/><path class="st3" d="M144.681 35.914H52.585c-4.579 0-8.305-3.726-8.305-8.305v-3.977c0-4.58 3.726-8.306 8.305-8.306h25.354a1.5 1.5 0 0 1 0 3H52.585a5.311 5.311 0 0 0-5.305 5.306v3.977a5.311 5.311 0 0 0 5.305 5.305h92.096a5.311 5.311 0 0 0 5.305-5.305v-3.977a5.311 5.311 0 0 0-5.305-5.306H90.727a1.5 1.5 0 0 1 0-3h53.954c4.579 0 8.305 3.726 8.305 8.306v3.977c-.001 4.579-3.726 8.305-8.305 8.305z"/><circle transform="rotate(-77.907 99 84.246)" class="st4" cx="98.999" cy="84.245" r="30.045"/><path class="st3" d="M98.999 115.789c-17.394 0-31.545-14.15-31.545-31.544S81.605 52.7 98.999 52.7c17.394 0 31.545 14.151 31.545 31.545 0 17.394-14.151 31.544-31.545 31.544zm0-60.089c-15.739 0-28.545 12.806-28.545 28.545 0 15.739 12.806 28.544 28.545 28.544 15.739 0 28.545-12.805 28.545-28.544S114.738 55.7 98.999 55.7z"/><path class="st19" d="m100.744 65.177 5.009 10.15c.283.574.831.973 1.465 1.065l11.201 1.628c1.596.232 2.234 2.194 1.079 3.32l-8.105 7.901a1.946 1.946 0 0 0-.56 1.723l1.913 11.156c.273 1.59-1.396 2.802-2.824 2.052l-10.019-5.267a1.946 1.946 0 0 0-1.811 0l-10.019 5.267c-1.428.751-3.097-.462-2.824-2.052l1.913-11.156a1.947 1.947 0 0 0-.56-1.723L78.5 81.339c-1.155-1.126-.518-3.088 1.079-3.32l11.201-1.628a1.943 1.943 0 0 0 1.465-1.065l5.009-10.15c.714-1.446 2.777-1.446 3.49.001z"/><path class="st3" d="M110.832 105.896a3.453 3.453 0 0 1-1.605-.398l-10.02-5.268a.46.46 0 0 0-.415-.001l-10.019 5.269a3.425 3.425 0 0 1-3.63-.264 3.423 3.423 0 0 1-1.371-3.369l1.913-11.157a.444.444 0 0 0-.128-.395l-8.104-7.9a3.427 3.427 0 0 1-.873-3.533 3.427 3.427 0 0 1 2.782-2.346l11.201-1.627a.45.45 0 0 0 .337-.245l5.009-10.149a3.424 3.424 0 0 1 3.09-1.921c1.321 0 2.506.736 3.09 1.921l5.01 10.15a.447.447 0 0 0 .338.244l11.199 1.627a3.424 3.424 0 0 1 2.782 2.347 3.425 3.425 0 0 1-.872 3.532l-8.105 7.9a.45.45 0 0 0-.128.395l1.913 11.156a3.424 3.424 0 0 1-1.369 3.37 3.433 3.433 0 0 1-2.025.662zm-11.833-8.717c.551 0 1.102.132 1.603.396l10.02 5.268a.423.423 0 0 0 .47-.034.42.42 0 0 0 .177-.436l-1.913-11.156a3.452 3.452 0 0 1 .99-3.05l8.106-7.901a.423.423 0 0 0 .113-.457.427.427 0 0 0-.361-.305l-11.2-1.627a3.449 3.449 0 0 1-2.596-1.886l-5.009-10.149a.422.422 0 0 0-.4-.249.421.421 0 0 0-.4.249l-5.009 10.15a3.45 3.45 0 0 1-2.594 1.885l-11.202 1.627a.423.423 0 0 0-.36.304.424.424 0 0 0 .113.458l8.104 7.9a3.445 3.445 0 0 1 .991 3.051l-1.913 11.156a.421.421 0 0 0 .178.436.423.423 0 0 0 .471.034l10.018-5.268a3.438 3.438 0 0 1 1.603-.396z"/><path class="st11" d="M47.911 129.702s3.408 12.659 13.222 13.246c0 0-13.1 4.525-13.321 14.202 0 0-2.578-13.572-12.925-14.059 0 .001 12.05-1.825 13.024-13.389z"/><path class="st3" d="M47.81 158.65a1.502 1.502 0 0 1-1.473-1.218c-.023-.124-2.494-12.417-11.521-12.843a1.5 1.5 0 0 1-.155-2.982c.441-.068 10.895-1.816 11.754-12.032a1.5 1.5 0 0 1 2.943-.265c.031.116 3.259 11.626 11.863 12.142a1.5 1.5 0 0 1 .402 2.914c-.121.042-12.118 4.311-12.313 12.819a1.5 1.5 0 0 1-1.5 1.465zm-7.74-15.729c3.878 1.969 6.229 5.746 7.586 8.877 2.026-4.021 5.942-6.787 8.949-8.428-4.134-1.842-6.783-5.651-8.334-8.723-1.793 4.361-5.27 6.87-8.201 8.274z"/><path class="st11" d="M26.212 146.683s2.411 8.954 9.352 9.369c0 0-9.266 3.201-9.422 10.045 0 0-1.824-9.6-9.142-9.944 0 0 8.524-1.291 9.212-9.47z"/><path class="st3" d="M26.142 167.598a1.5 1.5 0 0 1-1.473-1.22c-.016-.082-1.704-8.442-7.739-8.727a1.5 1.5 0 0 1-.155-2.982c.296-.047 7.363-1.242 7.942-8.113a1.502 1.502 0 0 1 1.361-1.368 1.504 1.504 0 0 1 1.582 1.101c.021.079 2.227 7.92 7.993 8.266a1.5 1.5 0 0 1 .399 2.915c-.08.028-8.281 2.952-8.411 8.661a1.5 1.5 0 0 1-1.499 1.467zm-4.52-11.528c2.107 1.332 3.523 3.395 4.447 5.279 1.376-2.232 3.516-3.871 5.365-4.972-2.288-1.27-3.885-3.351-4.941-5.225-1.174 2.288-3.016 3.877-4.871 4.918z"/><path class="st11" d="M26.212 120.025s2.411 8.954 9.352 9.37c0 0-9.266 3.201-9.422 10.045 0 0-1.824-9.6-9.142-9.944 0 0 8.524-1.291 9.212-9.471z"/><path class="st3" d="M26.142 140.94a1.5 1.5 0 0 1-1.473-1.22c-.016-.082-1.704-8.442-7.739-8.727a1.5 1.5 0 0 1-.155-2.982c.296-.047 7.363-1.242 7.942-8.113a1.501 1.501 0 0 1 2.943-.267c.021.079 2.227 7.92 7.993 8.265a1.499 1.499 0 0 1 .4 2.915c-.081.028-8.282 2.953-8.412 8.662a1.5 1.5 0 0 1-1.499 1.467zm-4.52-11.527c2.107 1.332 3.523 3.395 4.447 5.279 1.376-2.232 3.516-3.872 5.365-4.973-2.287-1.268-3.885-3.35-4.941-5.224-1.174 2.288-3.016 3.877-4.871 4.918z"/><path class="st21" d="M121.74 239.172h110.292a6.968 6.968 0 0 0 6.968-6.967v-16.034a6.968 6.968 0 0 0-6.968-6.968H64.66a6.968 6.968 0 0 0-6.968 6.968v16.034a6.967 6.967 0 0 0 6.968 6.967H121.74z"/><path class="st3" d="M232.032 240.672H121.74a1.5 1.5 0 0 1 0-3h110.292a5.473 5.473 0 0 0 5.468-5.467v-16.034a5.474 5.474 0 0 0-5.468-5.468H64.66a5.474 5.474 0 0 0-5.468 5.468v16.034a5.473 5.473 0 0 0 5.468 5.467h44.267a1.5 1.5 0 0 1 0 3H64.66c-4.669 0-8.468-3.798-8.468-8.467v-16.034c0-4.669 3.799-8.468 8.468-8.468h167.372c4.669 0 8.468 3.799 8.468 8.468v16.034c0 4.669-3.799 8.467-8.468 8.467z"/><path style="fill:#ef6d7a" d="M169.396 209.203h37.624v29.969h-37.624z"/><path class="st3" d="M207.02 240.673h-37.623a1.5 1.5 0 0 1-1.5-1.5v-29.97a1.5 1.5 0 0 1 1.5-1.5h37.623a1.5 1.5 0 0 1 1.5 1.5v29.97a1.5 1.5 0 0 1-1.5 1.5zm-36.124-3h34.623v-26.97h-34.623v26.97z"/><path class="st19" d="M176.249 187.45v14.784a6.968 6.968 0 0 1-6.968 6.968H36.887a6.968 6.968 0 0 1-6.968-6.968V187.45a6.968 6.968 0 0 1 6.968-6.968h132.394a6.968 6.968 0 0 1 6.968 6.968z"/><path class="st3" d="M169.281 210.702H36.887c-4.669 0-8.468-3.799-8.468-8.468V187.45c0-4.669 3.799-8.468 8.468-8.468h132.395c4.669 0 8.468 3.799 8.468 8.468v14.784c-.001 4.669-3.8 8.468-8.469 8.468zm-132.394-28.72a5.474 5.474 0 0 0-5.468 5.468v14.784a5.474 5.474 0 0 0 5.468 5.468h132.395a5.474 5.474 0 0 0 5.468-5.468V187.45a5.474 5.474 0 0 0-5.468-5.468H36.887z"/><path class="st11" d="M118.921 180.482h30.987v28.721h-30.987z"/><path class="st3" d="M149.908 210.703h-30.987a1.5 1.5 0 0 1-1.5-1.5v-28.721a1.5 1.5 0 0 1 1.5-1.5h30.987a1.5 1.5 0 0 1 1.5 1.5v28.721a1.5 1.5 0 0 1-1.5 1.5zm-29.487-3h27.987v-25.721h-27.987v25.721z"/><path class="st4" d="m176.109 198.19-6.429-12.924-14.68 1.292 25.643-46.535 21.109 11.631z"/><path class="st3" d="M176.109 199.69h-.031a1.498 1.498 0 0 1-1.311-.832l-5.975-12.009-13.66 1.203a1.5 1.5 0 0 1-1.446-2.218l25.643-46.536a1.499 1.499 0 0 1 2.037-.59l21.109 11.632c.726.399.99 1.311.59 2.037l-25.643 46.536a1.495 1.495 0 0 1-1.313.777zm-6.428-15.924a1.5 1.5 0 0 1 1.342.832l5.155 10.361 23.536-42.715-18.481-10.184-23.561 42.757 11.876-1.046a1.97 1.97 0 0 1 .133-.005z"/><path class="st4" d="m217.891 198.19 6.429-12.924 14.68 1.292-25.643-46.535-21.109 11.631z"/><path class="st3" d="M217.891 199.69c-.546 0-1.05-.297-1.313-.776l-25.643-46.536a1.498 1.498 0 0 1 .59-2.037l21.109-11.632a1.489 1.489 0 0 1 1.141-.127c.382.11.705.368.896.717l25.643 46.536a1.498 1.498 0 0 1-1.446 2.218l-13.66-1.203-5.975 12.009a1.5 1.5 0 0 1-1.311.832l-.031-.001zm-23.605-47.446 23.536 42.715 5.155-10.361a1.48 1.48 0 0 1 1.475-.826l11.876 1.046-23.561-42.757-18.481 10.183z"/><path class="st21" d="m232.342 135.712-.018.015a8.457 8.457 0 0 0-2.863 8.813l.005.019c1.419 5.217-2.354 10.408-7.755 10.667l-.015.001a8.456 8.456 0 0 0-7.504 5.454c-1.915 5.062-8.026 7.047-12.55 4.077l-.001-.001a8.458 8.458 0 0 0-9.281 0l-.001.001c-4.524 2.97-10.635.984-12.55-4.077a8.456 8.456 0 0 0-7.504-5.454l-.015-.001c-5.401-.259-9.174-5.45-7.755-10.667l.005-.019a8.457 8.457 0 0 0-2.863-8.813l-.018-.014c-4.213-3.385-4.214-9.8 0-13.185l.018-.015a8.457 8.457 0 0 0 2.863-8.813l-.005-.019c-1.419-5.217 2.354-10.408 7.755-10.667l.015-.001a8.456 8.456 0 0 0 7.504-5.455c1.915-5.062 8.026-7.047 12.55-4.077l.001.001a8.458 8.458 0 0 0 9.281 0l.001-.001c4.524-2.969 10.635-.984 12.55 4.077a8.456 8.456 0 0 0 7.504 5.454l.015.001c5.401.259 9.174 5.45 7.755 10.667l-.005.019a8.457 8.457 0 0 0 2.863 8.813l.018.015c4.213 3.385 4.213 9.8 0 13.185z"/><path class="st3" d="M206.27 167.649a9.915 9.915 0 0 1-5.451-1.638 6.956 6.956 0 0 0-7.636-.001 9.907 9.907 0 0 1-8.541 1.146 9.907 9.907 0 0 1-6.236-5.945 6.953 6.953 0 0 0-6.172-4.487 9.916 9.916 0 0 1-7.592-4.092 9.91 9.91 0 0 1-1.555-8.469 6.962 6.962 0 0 0-2.35-7.269 9.92 9.92 0 0 1-3.739-7.775 9.916 9.916 0 0 1 3.721-7.763 6.964 6.964 0 0 0 2.374-7.265c-.802-2.946-.235-6.033 1.549-8.487s4.545-3.945 7.575-4.09a6.96 6.96 0 0 0 6.189-4.487 9.908 9.908 0 0 1 6.236-5.946 9.909 9.909 0 0 1 8.54 1.146 6.96 6.96 0 0 0 7.636 0 9.91 9.91 0 0 1 8.541-1.146 9.907 9.907 0 0 1 6.236 5.945 6.953 6.953 0 0 0 6.172 4.487c3.046.146 5.808 1.637 7.592 4.091s2.352 5.541 1.555 8.469a6.963 6.963 0 0 0 2.35 7.27 9.92 9.92 0 0 1 3.739 7.776 9.916 9.916 0 0 1-3.731 7.77l-.019.015a6.953 6.953 0 0 0-2.346 7.241c.802 2.947.235 6.034-1.549 8.488s-4.545 3.945-7.575 4.09a6.96 6.96 0 0 0-6.189 4.487 9.908 9.908 0 0 1-6.236 5.946 9.963 9.963 0 0 1-3.088.493zm-18.543-74.057c-.723 0-1.45.113-2.158.343a6.922 6.922 0 0 0-4.357 4.155 9.95 9.95 0 0 1-8.836 6.421 6.933 6.933 0 0 0-5.308 2.859 6.921 6.921 0 0 0-1.086 5.917 9.963 9.963 0 0 1-3.366 10.395 6.933 6.933 0 0 0-2.618 5.438c0 2.119.947 4.096 2.6 5.422a9.964 9.964 0 0 1 3.39 10.391 6.935 6.935 0 0 0 1.08 5.936 6.925 6.925 0 0 0 5.294 2.858 9.96 9.96 0 0 1 8.851 6.422 6.925 6.925 0 0 0 4.357 4.155 6.938 6.938 0 0 0 5.967-.801 9.953 9.953 0 0 1 10.929-.001 6.915 6.915 0 0 0 5.968.801 6.923 6.923 0 0 0 4.357-4.154 9.95 9.95 0 0 1 8.836-6.421 6.93 6.93 0 0 0 5.308-2.859 6.921 6.921 0 0 0 1.086-5.917 9.963 9.963 0 0 1 3.366-10.395l.018-.016a6.92 6.92 0 0 0 2.6-5.422c0-2.12-.947-4.097-2.6-5.423a9.965 9.965 0 0 1-3.39-10.392 6.935 6.935 0 0 0-1.081-5.937 6.922 6.922 0 0 0-5.293-2.857 9.96 9.96 0 0 1-8.851-6.422 6.922 6.922 0 0 0-4.357-4.155 6.934 6.934 0 0 0-5.967.8 9.95 9.95 0 0 1-10.929.001 6.938 6.938 0 0 0-3.81-1.142z"/><path class="st3" d="M206.27 167.649a9.915 9.915 0 0 1-5.451-1.638 6.956 6.956 0 0 0-7.636-.001 9.907 9.907 0 0 1-8.541 1.146 9.907 9.907 0 0 1-6.236-5.945 6.953 6.953 0 0 0-6.172-4.487 9.916 9.916 0 0 1-7.592-4.092 9.91 9.91 0 0 1-1.555-8.469 6.962 6.962 0 0 0-2.35-7.269 9.92 9.92 0 0 1-3.739-7.775 9.916 9.916 0 0 1 3.721-7.763 6.964 6.964 0 0 0 2.374-7.265c-.802-2.946-.235-6.033 1.549-8.487s4.545-3.945 7.575-4.09a6.96 6.96 0 0 0 6.189-4.487 9.908 9.908 0 0 1 6.236-5.946 9.909 9.909 0 0 1 8.54 1.146 6.96 6.96 0 0 0 7.636 0 9.91 9.91 0 0 1 8.541-1.146 9.907 9.907 0 0 1 6.236 5.945 6.953 6.953 0 0 0 6.172 4.487c3.046.146 5.808 1.637 7.592 4.091s2.352 5.541 1.555 8.469a6.963 6.963 0 0 0 2.35 7.27 9.92 9.92 0 0 1 3.739 7.776 9.916 9.916 0 0 1-3.731 7.77l-.019.015a6.953 6.953 0 0 0-2.346 7.241c.802 2.947.235 6.034-1.549 8.488s-4.545 3.945-7.575 4.09a6.96 6.96 0 0 0-6.189 4.487 9.908 9.908 0 0 1-6.236 5.946 9.963 9.963 0 0 1-3.088.493zm-18.543-74.057c-.723 0-1.45.113-2.158.343a6.922 6.922 0 0 0-4.357 4.155 9.95 9.95 0 0 1-8.836 6.421 6.933 6.933 0 0 0-5.308 2.859 6.921 6.921 0 0 0-1.086 5.917 9.963 9.963 0 0 1-3.366 10.395 6.933 6.933 0 0 0-2.618 5.438c0 2.119.947 4.096 2.6 5.422a9.964 9.964 0 0 1 3.39 10.391 6.935 6.935 0 0 0 1.08 5.936 6.925 6.925 0 0 0 5.294 2.858 9.96 9.96 0 0 1 8.851 6.422 6.925 6.925 0 0 0 4.357 4.155 6.938 6.938 0 0 0 5.967-.801 9.953 9.953 0 0 1 10.929-.001 6.915 6.915 0 0 0 5.968.801 6.923 6.923 0 0 0 4.357-4.154 9.95 9.95 0 0 1 8.836-6.421 6.93 6.93 0 0 0 5.308-2.859 6.921 6.921 0 0 0 1.086-5.917 9.963 9.963 0 0 1 3.366-10.395l.018-.016a6.92 6.92 0 0 0 2.6-5.422c0-2.12-.947-4.097-2.6-5.423a9.965 9.965 0 0 1-3.39-10.392 6.935 6.935 0 0 0-1.081-5.937 6.922 6.922 0 0 0-5.293-2.857 9.96 9.96 0 0 1-8.851-6.422 6.922 6.922 0 0 0-4.357-4.155 6.934 6.934 0 0 0-5.967.8 9.95 9.95 0 0 1-10.929.001 6.938 6.938 0 0 0-3.81-1.142z"/><circle transform="rotate(-80.781 197.002 129.116)" class="st11" cx="197" cy="129.12" r="25.471"/><path class="st3" d="M197 156.091c-14.872 0-26.971-12.1-26.971-26.972 0-14.872 12.099-26.971 26.971-26.971s26.971 12.099 26.971 26.971-12.099 26.972-26.971 26.972zm0-50.943c-13.218 0-23.971 10.753-23.971 23.971s10.753 23.972 23.971 23.972 23.971-10.754 23.971-23.972c0-13.218-10.753-23.971-23.971-23.971z"/><path d="m198.305 114.866 3.744 7.587c.212.429.622.727 1.095.796l8.373 1.217c1.193.173 1.67 1.64.806 2.482l-6.059 5.906a1.454 1.454 0 0 0-.418 1.288l1.43 8.339c.204 1.188-1.044 2.095-2.111 1.534l-7.489-3.937a1.454 1.454 0 0 0-1.354 0l-7.489 3.937c-1.067.561-2.315-.345-2.111-1.534l1.43-8.339a1.456 1.456 0 0 0-.419-1.288l-6.059-5.906c-.863-.842-.387-2.308.806-2.482l8.373-1.217a1.455 1.455 0 0 0 1.095-.796l3.745-7.587c.536-1.081 2.078-1.081 2.612 0z" style="fill:#f8e4c8"/><path class="st3" d="M205.846 145.684c-.47 0-.941-.113-1.377-.342l-7.49-3.938-7.446 3.938a2.94 2.94 0 0 1-3.112-.227 2.938 2.938 0 0 1-1.175-2.89l1.43-8.339-6.045-5.865a2.938 2.938 0 0 1-.748-3.029 2.937 2.937 0 0 1 2.385-2.011l8.373-1.217 3.711-7.562a2.934 2.934 0 0 1 2.648-1.646h.001c1.133 0 2.148.631 2.649 1.646l3.744 7.587 8.34 1.192a2.937 2.937 0 0 1 2.385 2.011 2.938 2.938 0 0 1-.748 3.029l-6.059 5.905 1.443 8.299a2.939 2.939 0 0 1-1.175 2.89 2.942 2.942 0 0 1-1.734.569zm-8.888-30.157-3.662 7.59a2.95 2.95 0 0 1-2.227 1.616l-8.371 1.217 6.084 5.828a2.958 2.958 0 0 1 .85 2.616l-1.43 8.339 7.423-3.985a2.962 2.962 0 0 1 2.749 0l7.49 3.938-1.496-8.291a2.956 2.956 0 0 1 .848-2.615l6.061-5.906-8.348-1.14a2.954 2.954 0 0 1-2.226-1.617l-3.745-7.59z"/><path class="st17" d="M129.38 35.917v39.85c.76 2.7 1.16 5.54 1.16 8.48 0 2.94-.4 5.78-1.16 8.48v6.49c0 19.81-16.12 35.93-35.93 35.93h15c19.81 0 35.93-16.12 35.93-35.93v-63.3h-15zM149.99 23.638v3.97c0 2.93-2.38 5.31-5.31 5.31h-15c2.93 0 5.31-2.38 5.31-5.31v-3.97c0-2.93-2.38-5.31-5.31-5.31h15a5.312 5.312 0 0 1 5.31 5.31z"/><path d="M237.5 216.167v16.04a5.47 5.47 0 0 1-5.47 5.46h-15a5.47 5.47 0 0 0 5.47-5.46v-16.04a5.47 5.47 0 0 0-5.47-5.46h15c3.02 0 5.47 2.451 5.47 5.46z" style="fill:#6ca8bf"/></g></svg>